<?xml version="1.0" encoding="UTF-8" standalone="no"?>
<!-- Created with Inkscape (http://www.inkscape.org/) -->

<svg
   xmlns:dc="http://purl.org/dc/elements/1.1/"
   xmlns:cc="http://creativecommons.org/ns#"
   xmlns:rdf="http://www.w3.org/1999/02/22-rdf-syntax-ns#"
   xmlns:svg="http://www.w3.org/2000/svg"
   xmlns="http://www.w3.org/2000/svg"
   version="1.1"
   width="48"
   height="48"
   id="svg2">
  <defs
     id="defs18">
    <filter
       color-interpolation-filters="sRGB"
       id="filter3134">
      <feFlood
         id="feFlood3136"
         flood-opacity="0.9"
         flood-color="rgb(0,0,0)"
         result="flood" />
      <feComposite
         in2="SourceGraphic"
         operator="in"
         in="flood"
         result="composite1"
         id="feComposite3138" />
      <feGaussianBlur
         id="feGaussianBlur3140"
         stdDeviation="1.4"
         result="blur" />
      <feOffset
         id="feOffset3142"
         dx="1.4"
         dy="1.4"
         result="offset" />
      <feComposite
         in2="offset"
         operator="over"
         in="SourceGraphic"
         result="composite2"
         id="feComposite3144" />
    </filter>
  </defs>
  <metadata
     id="metadata7">
    <rdf:RDF>
      <cc:Work
         rdf:about="">
        <dc:format>image/svg+xml</dc:format>
        <dc:type
           rdf:resource="http://purl.org/dc/dcmitype/StillImage" />
        <dc:title></dc:title>
      </cc:Work>
    </rdf:RDF>
  </metadata>
  <path
     d="m 36,43 c 8,0 8,-8 8,-8 L 44,11 C 44,11 44,3 36,3 28,3 18,3 10,3 2,3 2,11 2,11 l 0,24 c 0,0 0,8 8,8 8,0 18,0 26,0 z"
     id="path3765"
     style="fill:#ffffff;fill-opacity:1;stroke:none;filter:url(#filter3134)" />
  <path
     d="m 14,10.5 -9.5,0 0,18"
     id="path3751-9"
     style="fill:none;stroke:#0000ff;stroke-width:1;stroke-linecap:butt;stroke-linejoin:miter;stroke-miterlimit:4;stroke-opacity:1;stroke-dasharray:none" />
  <path
     d="m 14,16.5 -7.5,0 0,18"
     id="path3753-3"
     style="fill:none;stroke:#ff0000;stroke-width:1;stroke-linecap:butt;stroke-linejoin:miter;stroke-miterlimit:4;stroke-opacity:1;stroke-dasharray:none" />
  <path
     d="m 20.5,13.5 6,0 0,6 3,0"
     id="path3755-1"
     style="fill:none;stroke:#ff0000;stroke-width:1;stroke-linecap:butt;stroke-linejoin:miter;stroke-miterlimit:4;stroke-opacity:1;stroke-dasharray:none" />
  <path
     d="m 21.5,31.5 5,0 0,-6 3,0"
     id="path21"
     style="fill:none;stroke:#ff0000;stroke-width:1;stroke-linecap:butt;stroke-linejoin:miter;stroke-miterlimit:4;stroke-opacity:1;stroke-dasharray:none" />
  <path
     d="m 41,22.5 3,0"
     id="path3755"
     style="fill:none;stroke:#ff0000;stroke-width:1;stroke-linecap:butt;stroke-linejoin:miter;stroke-miterlimit:4;stroke-opacity:1;stroke-dasharray:none" />
  <path
     d="m 2,28.5 8,0"
     id="path18"
     style="fill:none;stroke:#0000ff;stroke-width:1;stroke-linecap:butt;stroke-linejoin:miter;stroke-miterlimit:4;stroke-opacity:1;stroke-dasharray:none" />
  <path
     d="m 2,34.5 8,0"
     id="path3753-1"
     style="fill:none;stroke:#ff0000;stroke-width:1;stroke-linecap:butt;stroke-linejoin:miter;stroke-miterlimit:4;stroke-opacity:1;stroke-dasharray:none" />
  <path
     d="m 9.5,7.5 c 6,0 9.5,0.5 13,6 -3.5,5.5 -7,6 -13,6 0,0 2,-3 2,-6 0,-3 -2,-6 -2,-6 z"
     id="path3036-3"
     style="fill:#ffffff;fill-opacity:1;stroke:#000000;stroke-width:1;stroke-linecap:butt;stroke-linejoin:miter;stroke-miterlimit:4;stroke-opacity:1;stroke-dasharray:none" />
  <path
     d="m 28.5,16.5 7,0 c 0,0 6,0 6,6 0,6 -6,6 -6,6 l -7,0 z"
     id="path3036"
     style="fill:#ffffff;fill-opacity:1;stroke:#000000;stroke-width:1;stroke-linecap:butt;stroke-linejoin:miter;stroke-miterlimit:4;stroke-opacity:1;stroke-dasharray:none" />
  <path
     d="m 8.5,25.5 7,0 c 0,0 6,0 6,6 0,6 -6,6 -6,6 l -7,0 z"
     id="path16"
     style="fill:#ffffff;fill-opacity:1;stroke:#000000;stroke-width:1;stroke-linecap:butt;stroke-linejoin:miter;stroke-miterlimit:4;stroke-opacity:1;stroke-dasharray:none" />
  <path
     d="m 25.5,31.5 a 2,2 0 0 1 -4,0 2,2 0 1 1 4,0 z"
     id="path3789"
     style="fill:#ffffff;fill-opacity:1;stroke:#000000;stroke-width:1;stroke-miterlimit:4;stroke-opacity:1;stroke-dasharray:none" />
</svg>
