<svg version="1.1" viewBox="0 0 16 16" xmlns="http://www.w3.org/2000/svg"><path d="m7.8978798 2.3727175v5.7805729l2.4186662 3.8510086" fill="none" stroke="#fff" stroke-linecap="round" stroke-linejoin="round" stroke-width=".40445"/><path d="m11.715591 2.3413799-.647199-1.65264902m.647199 1.65264902-1.518994.8769904m-3.2664774 11.8208947a6.9536483 6.9536483 0 01-5.7918652-5.2548122 6.9536483 6.9536483 0 012.7579325-7.317961 6.9536483 6.9536483 0 017.8194041-.1251062" fill="none" stroke="#fff" stroke-linecap="round" stroke-linejoin="round" stroke-width=".55275"/><g fill="#fff"><path d="m12.268564 13.726531a.33843033.33843033 0 01-.33843.338429.33843033.33843033 0 01-.338431-.338429.33843033.33843033 0 01.338431-.338432.33843033.33843033 0 01.33843.338432z" style="paint-order:stroke fill markers"/><path d="m15.197563 8.22032a.33843033.33843033 0 01-.33843.3384293.33843033.33843033 0 01-.338429-.3384293.33843033.33843033 0 01.338429-.3384312.33843033.33843033 0 01.33843.3384312z" style="paint-order:stroke fill markers"/><path d="m10.446951 14.706674a.33843033.33843033 0 01-.33843.338429.33843033.33843033 0 01-.3384308-.338429.33843033.33843033 0 01.3384308-.338432.33843033.33843033 0 01.33843.338432z" style="paint-order:stroke fill markers"/><path d="m13.99363 4.2395284a.33843033.33843033 0 01-.338431.3384293.33843033.33843033 0 01-.338429-.3384293.33843033.33843033 0 01.338429-.3384312.33843033.33843033 0 01.338431.3384312z" style="paint-order:stroke fill markers"/><path d="m13.813919 12.235088a.33843033.33843033 0 01-.338431.338431.33843033.33843033 0 01-.338429-.338431.33843033.33843033 0 01.338429-.33843.33843033.33843033 0 01.338431.33843z" style="paint-order:stroke fill markers"/><path d="m14.83888 5.9476688a.33843033.33843033 0 01-.338431.3384293.33843033.33843033 0 01-.338429-.3384293.33843033.33843033 0 01.338429-.3384312.33843033.33843033 0 01.338431.3384312z" style="paint-order:stroke fill markers"/><path d="m12.682901 2.7973446a.33843033.33843033 0 01-.338429.3384312.33843033.33843033 0 01-.338431-.3384312.33843033.33843033 0 01.338431-.3384312.33843033.33843033 0 01.338429.3384312z" style="paint-order:stroke fill markers"/><path d="m8.199862 15.114396a.33843033.33843033 0 01-.3384312.338431.33843033.33843033 0 01-.3384293-.338431.33843033.33843033 0 01.3384293-.33843.33843033.33843033 0 01.3384312.33843z" style="paint-order:stroke fill markers"/><path d="m14.7777 10.53416a.33843033.33843033 0 01-.338431.338431.33843033.33843033 0 01-.338431-.338431.33843033.33843033 0 01.338431-.33843.33843033.33843033 0 01.338431.33843z" style="paint-order:stroke fill markers"/></g></svg>
