<svg fill="none" height="24" viewBox="0 0 24 24" width="24" xmlns="http://www.w3.org/2000/svg">
    <g fill="#000000f0">
        <path  d="m17.5001 4.5c0-.2645-.1394-.50944-.3667-.64463s-.5091-.14064-.7415-.01434l-11.49996 6.24997c-.30142.1638-.45327.5113-.36876.8438.08452.3324.38384.5652.72689.5652h11.50003c.4142 0 .75-.3358.75-.75zm-2.0001 5h-5.3323l5.3323-2.89797z" />
        <path d="m17.5001 19.5c0 .2645-.1394.5094-.3667.6446s-.5091.1407-.7415.0144l-11.49996-6.25c-.30142-.1638-.45327-.5113-.36876-.8438.08452-.3324.38384-.5652.72689-.5652h11.50003c.4142 0 .75.3358.75.75z" />
    </g>
</svg>