<svg version="1.1" viewBox="0 0 24 24" xml:space="preserve" xmlns="http://www.w3.org/2000/svg">
  <path d="m10.741 5.671-0.752 0.751 0.752 0.752h3.482l0.75-0.752-0.75-0.75zm-1.048 1.047-0.752 0.752v3.482l0.752 0.752 0.752-0.752v-3.482zm5.578 0-0.752 0.752v3.482l0.752 0.752 0.75-0.752v-3.482zm-4.53 4.53-0.752 0.752 0.752 0.752h3.482l0.75-0.752-0.75-0.752zm-1.048 1.048-0.752 0.752v3.482l0.752 0.75 0.752-0.75v-3.482zm5.578 0-0.752 0.752v3.482l0.752 0.75 0.75-0.75v-3.482zm-4.53 4.53-0.752 0.752 0.752 0.75h3.482l0.75-0.75-0.75-0.752zm-0.041781-11.2556875-0.8515627 0.8515625 0.8515627 0.8515625h3.564453l0.851562-0.8515625-0.851562-0.8496094zm0.08398 0.2011719h3.398438l0.65039 0.6503906-0.65039 0.6523437h-3.398434l-0.652344-0.6523437zm-1.0898396 0.8046875-0.8515625 0.8515625v3.5664066l0.8515625 0.851562 0.8515626-0.851562v-3.5664066zm5.5781246 0-0.851562 0.8515625v3.5664066l0.851562 0.851562 0.84961-0.851562v-3.5664066zm-5.5781246 0.2832031 0.6523436 0.6523437v3.3984373l-0.6523436 0.652344-0.6523438-0.652344v-3.3984373zm5.5761716 0 0.652344 0.6523437v3.3984373l-0.652344 0.652344-0.65039-0.652344v-3.3984373zm-4.570312 4.289063-0.8515627 0.851562 0.8515627 0.851563h3.564453l0.849609-0.851563-0.849609-0.851562zm0.08398 0.199218h3.398438l0.650394 0.652344-0.65039 0.652344h-3.398438l-0.652344-0.652344zm-1.0898436 0.806641-0.8515625 0.851562v3.566407l0.8515625 0.849609 0.8515626-0.849609v-3.566407zm5.5781246 0-0.851562 0.851562v3.566407l0.851562 0.849609 0.84961-0.849609v-3.566407zm-5.5781206 0.283203 0.6523436 0.652344v3.398437l-0.6523436 0.650391-0.6523438-0.650391v-3.398437zm5.5761716 0 0.652344 0.652344v3.398437l-0.650391 0.650391-0.652343-0.650391v-3.398437zm-4.570312 4.289062-0.8515627 0.851563 0.8515627 0.849609h3.564453l0.851562-0.849609-0.851562-0.851563zm0.08398 0.199219h3.398438l0.65039 0.652344-0.65039 0.650391h-3.398438l-0.652344-0.650391zm-5.6015584-15.3886716c-0.8539743 0-1.4598731 0.4308212-1.9355468 0.9160156-0.4756738 0.4851944-0.8789063 1.0638692-0.8789063 1.8984375v1.3847656h-2.3671875v2.1992188h2.3671875v1.1503906h-2.3671875v2.1992185h2.3671875v1.150391h-2.3671875v2.201172h2.3671875v1.148437h-2.3671875v2.199219h2.3671875v1.664062c0 0.834569 0.4032325 1.413244 0.8789063 1.898438 0.4756737 0.485194 1.0815725 0.916016 1.9355468 0.916016h14.5996094c0.853974 0 1.459622-0.428979 1.935547-0.914063 0.475924-0.485084 0.880859-1.065318 0.880859-1.900391v-15.2968745c0-0.8350727-0.404935-1.4153068-0.880859-1.9003906-0.475925-0.4850838-1.081573-0.9140625-1.935547-0.9140625zm0 2.2011719h14.5996094c-0.07397 0 0.178659 0.06374 0.365234 0.2539062 0.186576 0.1901662 0.25 0.4674477 0.25 0.359375v15.2968745c0-0.108072-0.06342 0.169209-0.25 0.359375-0.186575 0.190167-0.439208 0.253907-0.365234 0.253907h-14.5996094c0.073974 0-0.1789081-0.06385-0.3652344-0.253907-0.1863262-0.190055-0.25-0.466943-0.25-0.359375v-15.2968745c0 0.1075683 0.063674-0.1693194 0.25-0.359375 0.1863263-0.1900556 0.4392088-0.2539062 0.3652344-0.2539062z" fill="#000000f0" />
</svg>
