<svg version="1.1" viewBox="0 0 28 28" xmlns="http://www.w3.org/2000/svg">
  <g transform="translate(2.2356365,1.1999999)">
    <g transform="matrix(1.0770272 0 0 1.0772943 -.1416214 -.98936699)" stroke-linejoin="round" stroke-width=".928367">
      <path d="m9.7636719 4.5683594a0.18636089 0.18636089 0 0 0-0.1328125 0.0546875l-0.4433594 0.4453125a0.18636089 0.18636089 0 0 0 0.00195 0.2636718l1.3085939 1.2832032a0.18636089 0.18636089 0 0 0 0.130859 0.052734h4.34375a0.18636089 0.18636089 0 0 0 0.13086-0.052734l1.30664-1.2832032a0.18636089 0.18636089 0 0 0 0.0039-0.2597656l-0.4199119-0.4453125a0.18636089 0.18636089 0 0 0-0.134766-0.0585937zm-0.8886719 0.8652343a0.18636089 0.18636089 0 0 0-0.1328125 0.0566407l-0.4199219 0.4433593a0.18636089 0.18636089 0 0 0-0.0507812 0.1289063v6.095703a0.18636089 0.18636089 0 0 0 0.054687 0.13086l0.4199219 0.419921a0.18636089 0.18636089 0 0 0 0.2636718 0l1.3066404-1.308593a0.18636089 0.18636089 0 0 0 0.05274-0.13086v-4.3437498a0.18636089 0.18636089 0 0 0-0.0546925-0.1308593l-1.3066405-1.3066407a0.18636089 0.18636089 0 0 0-0.1328125-0.0546875zm7.849609 0a0.18636089 0.18636089 0 0 0-0.132812 0.054687l-1.306641 1.3066407a0.18636089 0.18636089 0 0 0-0.05469 0.1308593v4.3437498a0.18636089 0.18636089 0 0 0 0.05273 0.13086l1.306641 1.308593a0.18636089 0.18636089 0 0 0 0.263672 2e-3l0.421875-0.419922a0.18636089 0.18636089 0 0 0 0.05469-0.132813v-6.0957485a0.18636089 0.18636089 0 0 0-0.050777-0.1289063l-0.421875-0.4433593a0.18636089 0.18636089 0 0 0-0.132813-0.056641zm-6.330078 6.3046873a0.18636089 0.18636089 0 0 0-0.132812 0.05664l-0.8632815 0.888672a0.18636089 0.18636089 0 0 0 0.00195 0.259765l0.8632814 0.863282a0.18636089 0.18636089 0 0 0 0.130859 0.05469h4.810547a0.18636089 0.18636089 0 0 0 0.13086-0.05273l0.865234-0.863281a0.18636089 0.18636089 0 0 0 2e-3 -0.263672l-0.865234-0.888672a0.18636089 0.18636089 0 0 0-0.132813-0.05469zm-1.519531 1.097657a0.18636089 0.18636089 0 0 0-0.1328125 0.05664l-0.4199219 0.44336a0.18636089 0.18636089 0 0 0-0.050781 0.128906v6.072265a0.18636089 0.18636089 0 0 0 0.050781 0.128907l0.4199219 0.443359a0.18636089 0.18636089 0 0 0 0.265625 2e-3l1.3066405-1.306641a0.18636089 0.18636089 0 0 0 0.05469-0.130859v-4.34375a0.18636089 0.18636089 0 0 0-0.05274-0.130859l-1.3066374-1.308641a0.18636089 0.18636089 0 0 0-0.1347656-0.054687zm7.849609 0a0.18636089 0.18636089 0 0 0-0.134765 0.05469l-1.306641 1.308594a0.18636089 0.18636089 0 0 0-0.05273 0.130859v4.34375a0.18636089 0.18636089 0 0 0 0.05469 0.130859l1.306641 1.306641a0.18636089 0.18636089 0 0 0 0.265625-2e-3l0.421875-0.443359a0.18636089 0.18636089 0 0 0 0.05078-0.128907v-6.072265a0.18636089 0.18636089 0 0 0-0.05078-0.128906l-0.421875-0.44336a0.18636089 0.18636089 0 0 0-0.132813-0.05664zm-6.095703 6.095703a0.18636089 0.18636089 0 0 0-0.130859 0.05469l-1.3085939 1.308594a0.18636089 0.18636089 0 0 0 0.00195 0.265625l0.4433593 0.419922a0.18636089 0.18636089 0 0 0 0.1289063 0.05078h6.0957031a0.18636089 0.18636089 0 0 0 0.130859-0.05469l0.419922-0.419921a0.18636089 0.18636089 0 0 0 2e-3 -0.261719l-1.30664-1.308594a0.18636089 0.18636089 0 0 0-0.132813-0.05469z" stroke-width="1.60143"/>
      <g fill="none" stroke="#000">
        <path d="m20.903727 2.0894581h-16.207454c-0.831 0-1.5 0.669-1.5 1.5v18.421084c0 0.831 0.669 1.5 1.5 1.5h16.207454c0.831 0 1.5-0.669 1.5-1.5v-18.421084c0-0.831-0.669-1.5-1.5-1.5z" stroke-width="2.08882"/>
        <g stroke-width="1.60143">
          <path d="m-1.3391598 4.8056502h4.5354331"/>
          <path d="m-1.3391598 10.152182h4.5354331"/>
          <path d="m-1.3391598 20.845247h4.5354332"/>
          <path d="m-1.3391598 15.498715h4.5354331"/>
        </g>
      </g>
    </g>
  </g>
</svg>
