<svg version="1.1" viewBox="0 0 28 28" xmlns="http://www.w3.org/2000/svg">
  <g transform="translate(2.2356365,1.1999999)">
    <g transform="matrix(1.0895487,0,0,1.0895487,6.5895967,110.04827)" stroke-width=".917811">
      <g fill="none" stroke="#000" stroke-linejoin="round">
        <path d="m-8.099898-94.53678h3.196272" stroke-width="1.58322"/>
        <path d="m-8.066993-83.77688h3.196272" stroke-width="1.58322"/>
        <path d="m12.803829-99.96609h-16.207453c-0.831001 0-1.5 0.669-1.5 1.5v18.42109c0 0.831 0.668999 1.5 1.5 1.5h16.207453c0.831 0 1.5-0.669 1.5-1.5v-18.42109c0-0.831-0.669-1.5-1.5-1.5z" stroke-width="2.06508"/>
        <path d="m14.369639-94.53678h3.196272" stroke-width="1.58322"/>
        <path d="m14.402544-83.77688h3.196272" stroke-width="1.58322"/>
      </g>
      <path d="m10.63027-87.983829h-4.6584212v4.658421h-2.5434706v-4.658421h-4.658421v-2.543471h4.658421v-4.658421h2.5434706v4.658421h4.6584212z" stroke-width="2.60861" aria-label="+"/>
    </g>
  </g>
</svg>
