<svg version="1.1" viewBox="0 0 24 24" xml:space="preserve" xmlns="http://www.w3.org/2000/svg">
  <path d="m7.6054687 11.105469a1.125 1.125 0 0 0-1.125 1.125 1.125 1.125 0 0 0 1.125 1.125h8.7910153a1.125 1.125 0 0 0 1.125-1.125 1.125 1.125 0 0 0-1.125-1.125zm8.7915313 1.125531h-8.791m4.395953-5.5200625a1.125 1.125 0 0 0-1.125 1.125v8.7910155a1.125 1.125 0 0 0 1.125 1.125 1.125 1.125 0 0 0 1.125-1.125v-8.7910155a1.125 1.125 0 0 0-1.125-1.125zm-7.3027343-5.1992188c-1.5527934 1e-7 -2.8398437 1.285107-2.8398437 2.8398438v1.359375h-1.859375v2.25h1.859375v7.7988285h-1.859375v2.25h1.859375v1.634765c-0.00365 1.558015 1.2857372 2.846357 2.84375 2.841797h14.59375c1.558013 0.0046 2.847401-1.283782 2.84375-2.841797v-1.634765h1.861328v-2.25h-1.861328v-7.7988285h1.861328v-2.25h-1.861328v-1.359375c0-1.5539474-1.285896-2.8398437-2.839844-2.8398438zm0 2.2500001h14.6015623c0.346053 0 0.589844 0.2437911 0.589844 0.5898437v15.2968745a1.1251125 1.1251125 0 0 0 0 2e-3c7.92e-4 0.337836-0.250055 0.586926-0.587891 0.585937a1.1251125 1.1251125 0 0 0-2e-3 0h-14.6015153a1.1251125 1.1251125 0 0 0-0.00195 0c-0.3378387 9.43e-4 -0.5886854-0.248147-0.5878937-0.585983a1.1251125 1.1251125 0 0 0 0-2e-3v-15.2968285c0-0.3452632 0.2446372-0.5898437 0.5898437-0.5898437z" fill="#000000f0" />
</svg>
