<svg version="1.1" viewBox="0 0 28 28" xmlns="http://www.w3.org/2000/svg">
  <g transform="translate(2.2356365,1.1999999)">
    <g transform="matrix(1.0895487,0,0,1.0895487,6.5895967,110.04827)" stroke-width=".917811">
      <g transform="matrix(1.0005892,0,0,1.0005892,-8.0998978,-102.06387)" stroke-width=".841881">
        <path d="m5.0371094 5.2089844c-0.4762169-3.841e-4 -0.862648 0.3851728-0.8632813 0.8613281v1.4570313h-4.171875v1.7246093h4.171875v7.3183589h-4.1738281v1.72461h4.1738281v1.236328c6.333e-4 0.476155 0.3870645 0.861712 0.8632813 0.861328h8.6249996c0.0026 1.2e-5 0.0052 1.2e-5 0.0078 0 3.851641 0 7.038185-2.894753 7.519531-6.61914h4.494141v-1.72461h-4.460925c-0.379094-3.8320555-3.623868-6.8398435-7.552734-6.8398436-0.0026-1.18e-5 -0.0052-1.18e-5 -0.0078 0zm8.9179686 0.056641c0.01844 0.00589 0.03668 0.012409 0.05469 0.019531-0.01801-0.00712-0.03625-0.013636-0.05469-0.019531zm0.292969 0.1796875c0.01343 0.0126 0.02646 0.025628 0.03906 0.039063-0.0126-0.013434-0.02563-0.026462-0.03906-0.039063zm0.201172 0.28125c0.0056 0.013537 0.01077 0.027213 0.01563 0.041016-0.0049-0.013802-0.01007-0.027478-0.01563-0.041016zm-8.5507815 1.2050777h6.9023435l0.869141 0.00195c0.293625 6.599e-4 0.573638 0.044702 0.855469 0.085937 2.837675 0.4151925 5.011718 2.8224742 5.011718 5.7792964 0 2.95684-2.174018 5.367741-5.011718 5.783203-0.281815 0.04126-0.561862 0.08332-0.855469 0.08398l-0.869141 2e-3h-6.9023435zm8.5664065 12.902343c-0.0049 0.0138-0.01007 0.02748-0.01563 0.04102 0.0056-0.01354 0.01077-0.02721 0.01563-0.04102zm-0.177735 0.283204c-0.0126 0.01343-0.02563 0.02646-0.03906 0.03906 0.01343-0.0126 0.02646-0.02563 0.03906-0.03906zm-0.277343 0.199218c-0.01801 0.0071-0.03625 0.01364-0.05469 0.01953 0.01844-0.0059 0.03668-0.01241 0.05469-0.01953z" stroke-linejoin="round" stroke-width=".841881"/>
      </g>
    </g>
  </g>
</svg>
