<svg version="1.1" viewBox="0 0 24 24" xml:space="preserve" xmlns="http://www.w3.org/2000/svg">
  <path d="m12.023 16.125q-1.36 0-2.154-0.827-0.793-0.839-0.793-2.414v-1.768q0-1.53 0.793-2.38 0x.794-0.861 2.154-0.861 1.416 0 2.153 0.793 0.748 0.793 0.748 2.153v0.204h-1.496v-0.204q0-0.374-0.125-0.736-0.124-0.374-0.43-0.612t-0.85-0.238q-0.499 0-0.828 0.249-0.317 0.238-0.476 0.646-0.147 0.397-0.147 0.873v1.994q0 0.771 0.329 1.27 0.328 0.498 1.122 0.498 0.578 0 0.884-0.226 0.306-0.227 0.408-0.59 0.113-0.362 0.113-0.77v-0.204h1.496v0.204q0 1.405-0.748 2.176-0.737 0.77-2.153 0.77m-8.63-7.058 1.922-2.37-1.922-2.091zm-0.2269844-5.0435625a0.6250625 0.6250625 0 0 0-0.3984375 0.5820312v4.4609376a0.6250625 0.6250625 0 0 0 1.1113282 0.3945312l1.9218749-2.3710938a0.6250625 0.6250625 0 0 0-0.0253906-0.8164062l-1.921875-2.0898438a0.6250625 0.6250625 0 0 0-0.6875-0.1601562zm0.8515625 2.1855469 0.4726563 0.5136718-0.4726563 0.5820313zm0.6816406-4.6972657c-0.8651097 0-1.4722939 0.4332352-1.9511718 0.9218751-0.4788779 0.4886398-0.8867188 1.0721785-0.8867188 1.9179687v1.359375h-1.8613281v2.25h1.8613281v7.7988285h-1.8613281v2.25h1.8613281v1.638671c0 0.845955 0.4078829 1.4276 0.8867188 1.916016 0.4788358 0.488416 1.0860621 0.921875 1.9511718 0.921875h14.6015623c0.86511 0 1.472086-0.433572 1.951172-0.921875 0.479087-0.488303 0.888672-1.069544 0.888672-1.916016v-1.638671h1.859375v-2.25h-1.859375v-1.09961h1.859375v-2.25h-1.859375v-1.099609h1.859375v-2.2500001h-1.859375v-1.0996094h1.859375v-2.25h-1.859375v-1.359375c0-0.8457902-0.407616-1.4292843-0.886719-1.9179687-0.479102-0.4886845-1.088125-0.921875-1.953125-0.9218751zm0 2.2500001h14.6015623c-0.085 0 0.162306 0.060981 0.345703 0.2480468 0.183398 0.1870656 0.244141 0.4605871 0.244141 0.3417969v15.2968745c0-0.120471-0.06048 0.154601-0.244141 0.341797-0.183663 0.187197-0.431813 0.246094-0.345703 0.246094h-14.6015623c0.08611 0-0.1622889-0.05901-0.3457031-0.246094-0.1834141-0.187083-0.2421875-0.461751-0.2421875-0.341797v-15.2968745c0 0.1187902 0.058815-0.1546867 0.2421875-0.3417969 0.1833721-0.1871101 0.4318129-0.2480468 0.3457031-0.2480468z" fill="#000000f0" />
</svg>
