<svg version="1.1" viewBox="0 0 28 28" xmlns="http://www.w3.org/2000/svg">
  <g transform="translate(2.2356365,1.1999999)">
    <g transform="matrix(1.0925293,0,0,1.0925293,67.700416,248.29856)" stroke-width=".915307">
      <g transform="translate(-64,-228.35355)" stroke-width=".915307">
        <g fill="none" stroke="#000" stroke-linejoin="round">
          <path d="m0 7.5355731h3.1962719" stroke-width="1.57891"/>
          <path d="m2.0964921e-7 18.288072h3.1962719" stroke-width="1.57891"/>
          <path d="m20.903727 2.089461h-16.207454c-0.831 0-1.5 0.669-1.5 1.5v18.421079c0 0.831 0.669 1.5 1.5 1.5h16.207454c0.831 0 1.5-0.669 1.5-1.5v-18.421079c0-0.831-0.669-1.5-1.5-1.5z" stroke-width="2.05944"/>
          <path d="m3.4601307 15.475874c-0.123652 0.07139-0.123652 4.687975 0 4.759365s4.121731-2.236902 4.121731-2.379682c0-0.142782-3.998079-2.451073-4.121731-2.379683z" stroke-width="1.37296"/>
          <path d="m22.434978 7.5355731h3.196272" stroke-width="1.57891"/>
          <path d="m22.419353 18.288072h3.196272" stroke-width="1.57891"/>
        </g>
        <path d="m18.432071 12.306026q0 1.431717-0.653909 2.567453-0.653909 1.128853-1.65198 1.73458-0.750275 0.454294-1.645097 0.633259-0.894823 0.178964-2.120042 0.178964h-3.6137072v-10.249162h3.7169562q1.252752 0 2.161341 0.2133808 0.908589 0.2064976 1.528082 0.5919597 1.060021 0.6470257 1.665747 1.748346 0.612609 1.0944373 0.612609 2.5812193zm-2.732651-0.02065q0-1.011838-0.371695-1.727696-0.364813-0.7227413-1.16327-1.1288531-0.406112-0.1996144-0.832873-0.2684469-0.419879-0.0757157-1.273402-0.0757157h-0.667675v6.4151907h0.667675q0.943006 0 1.383534-0.0826 0.440528-0.08948 0.860406-0.31663 0.722742-0.412995 1.060021-1.10132 0.337279-0.695208 0.337279-1.713929z" stroke-width=".777636" aria-label="D"/>
      </g>
    </g>
  </g>
</svg>
