<svg version="1.1" viewBox="0 0 24 24" xml:space="preserve" xmlns="http://www.w3.org/2000/svg">
  <path d="m3.593 14.092 1.921-2.37-1.921-2.092zm-0.108625-4.7423906a0.30003001 0.30003001 0 0 0-0.1914062 0.28125v4.4609376a0.30003001 0.30003001 0 0 0 0.5332031 0.189453l1.9199218-2.371094a0.30003001 0.30003001 0 0 0-0.0117187-0.390625l-1.9199219-2.0917966a0.30003001 0.30003001 0 0 0-0.3300781-0.078125zm0.4082031 1.0507816 1.2246094 1.333984-1.2246094 1.509766zm4.6599477 5.30234c-0.7267137 0-1.3142614-0.197303-1.7626432-0.591908-0.4498359-0.400419-0.6747533-0.97743-0.6747533-1.731031v-0.684564h1.3691279v0.684564c0 0.317573 0.089746 0.569743 0.2692473 0.756508 0.1867649 0.186765 0.4392982 0.280148 0.7575986 0.280148 0.3037666 0 0.5384946-0.08975 0.7041852-0.269247 0.1729582-0.180225 0.2594367-0.436028 0.2594367-0.767409v-3.795624h-2.2309089v-1.2862826h4.2224669v1.2862826h-0.62243v3.795624c0 0.746335-0.207113 1.320075-0.62134 1.72122-0.4084132 0.401146-0.9650749 0.601719-1.6699872 0.601719m4.0746812-0.146069v-7.2576865h1.369128v2.9758915h0.29977l1.918523-2.9758915h1.544629v0.062134l-2.239004 3.4729625v0.187493l2.364362 3.472963v0.06213h-1.607853l-1.980657-2.975888h-0.29977v2.975892zm-12.627207-4.945334v2.5h2.9902344v-2.5zm0 5.023438v2.5h2.9902344v-2.5zm0-3.773766h2.99m-2.99 5.024h2.99m18.01854-11.2489876v2.4193462h2.990333v-2.4193462zm0 10.0335306v2.419348h2.990333v-2.419348zm-16.8032599-14.2404249c-0.9716603 0-1.6764162 0.6295662-2.021582 1.1899822-0.3451668 0.5604161-0.4898595 1.1408373-0.4898595 1.7344696v15.2968541c0 0.593789 0.1445608 1.174015 0.4898595 1.734466s1.0504401 1.188271 2.021582 1.188271h15.0942369c0.97166 0 1.605316-0.47027 2.100179-0.974245 0.494863-0.503976 0.906605-1.098325 0.906605-1.948492v-15.2968541c0-0.8505083-0.411568-1.4463936-0.906605-1.9502044-0.495037-0.5038107-1.128803-0.9742474-2.100179-0.9742474zm0.2102012 2.4193436h14.8840357c-0.19462 0 0.03122 0.02253 0.199234 0.1934854 0.168013 0.1709906 0.224823 0.4336262 0.224823 0.3116228v15.2968541c0-0.122547-0.05687 0.138865-0.224823 0.30991s-0.393203 0.193479-0.199234 0.193479h-14.8840357c-0.0679333-0.12161-0.1389157-0.373953-0.1389157-0.503389v-15.2968541c0-0.1287711 0.070863-0.3832714 0.1389157-0.5051082zm-4.41743443 1.7394289v2.5h2.99218753v-2.5z" fill="#000000f0" />
</svg>
