<svg version="1.1" viewBox="0 0 28 28" xmlns="http://www.w3.org/2000/svg">
  <g transform="matrix(1.0900728,0,0,1.0900728,27.305267,115.97477)">
    <path d="m-13.342182-91.797625q0 0.57971-0.18477 1.08843-0.18476 0.50281-0.54901 0.85182-0.38536 0.37267-0.9291 0.57971-0.54373 0.20113-1.34613 0.20113-0.54374 0-1.02412-0.0473-0.48039-0.0414-0.84464-0.12423v-1.78645h0.19004q0.25339 0.10648 0.5279 0.20112 0.27451 0.0887 0.7021 0.0887 0.55429 0 0.84992-0.16563 0.3009-0.16563 0.42759-0.4614 0.12142-0.28985 0.13726-0.63295 0.0158-0.34901 0.0158-0.88731v-3.507829h-1.80013v-1.62082h3.82725zm9.2434696 2.58503h-2.4864l-2.34914-3.52558-0.4751 0.64478v2.8808h-2.0271296v-8.808039h2.0271296v3.986979l2.80841-3.986979h2.34914l-3.07236 4.075719z" stroke-width=".689734" aria-label="JK"/>
    <g fill="none" stroke="#000">
      <path d="m-25.007712-99.675515h3.19627" stroke-width="1.725"/>
      <g stroke-linejoin="round">
        <path d="m-20.311442-104.25913h16.20746c0.831 0 1.5 0.669 1.5 1.5v18.421085c0 0.831-0.669 1.5-1.5 1.5h-16.20746c-0.831 0-1.5-0.669-1.5-1.5v-18.421085c0-0.831 0.669-1.5 1.5-1.5z" stroke-width="2.25"/>
        <path d="m-2.5589524-98.020634h3.19628" stroke-width="1.725"/>
        <path d="m-2.5589524-88.344795h3.19628" stroke-width="1.725"/>
        <path d="m-21.291172-91.494335c-0.12365-0.0714-0.12365-4.68797 0-4.75936 0.12365-0.0714 4.12173 2.2369 4.12173 2.37968s-3.99808 2.45107-4.12173 2.37968z" stroke-width="1.5"/>
      </g>
    </g>
    <g transform="translate(-25.007712,-106.34859)">
      <path d="m11.665527 14.550963q0 0.57971-0.184764 1.088435-0.184764 0.50281-0.549013 0.851819-0.385364 0.372671-0.929097 0.57971-0.5437338 0.201124-1.3461368 0.201124-0.543734 0-1.02412-0.04733-0.480385-0.04141-0.844634-0.124224v-1.786454h0.190043q0.25339 0.106478 0.527896 0.201124 0.274507 0.08873 0.702103 0.08873 0.554291 0 0.849913-0.165631 0.300902-0.165631 0.427597-0.461402 0.121416-0.289855 0.137253-0.632949 0.01583-0.349009 0.01583-0.887312v-3.5078303h-1.800124v-1.620822h3.8272508zm9.24347 2.585034h-2.486393l-2.34914-3.525584-0.475107 0.644779v2.880805h-2.027123v-8.8080453h2.027123v3.9869863l2.808409-3.9869863h2.34914l-3.072357 4.0757173z" stroke-width=".689734" aria-label="JK"/>
      <g fill="none" stroke="#000">
        <path d="m1.9073486e-7 12.911822h3.196272" stroke-width="1.725"/>
        <path d="m2.0964921e-7 19.150572h3.196272" stroke-width="1.725"/>
        <g stroke-linejoin="round">
          <path d="m4.6962732 2.0894607h16.207454c0.831 0 1.5 0.669 1.5 1.5v18.421079c0 0.831-0.669 1.5-1.5 1.5h-16.207454c-0.831 0-1.5-0.669-1.5-1.5v-18.421079c0-0.831 0.669-1.5 1.5-1.5z" stroke-width="2.25"/>
          <path d="m22.448765 8.3279507h3.196272" stroke-width="1.725"/>
          <path d="m22.448765 18.00379h3.196272" stroke-width="1.725"/>
          <path d="m3.7165422 14.854258c-0.123652-0.07139-0.123652-4.687976 0-4.759366s4.121731 2.236902 4.121731 2.379682c0 0.142782-3.998079 2.451074-4.121731 2.379684z" stroke-width="1.5"/>
        </g>
      </g>
    </g>
  </g>
</svg>
