<svg version="1.1" viewBox="0 0 28 28" xmlns="http://www.w3.org/2000/svg">
  <g transform="translate(2.2356365,1.1999999)">
    <g transform="matrix(1.0895487,0,0,1.0895487,6.5895967,110.04827)" stroke-width=".917811">
      <g stroke-linejoin="round" stroke-width=".842377">
        <path d="m12.786085-89.147925h4.812731"/>
        <path d="m12.786085-89.977938v1.660017h4.812731v-1.660017z"/>
        <path d="m-7.7610334-84.803221h4.8127316"/>
        <path d="m-8.0998978-85.633976v1.660018h5.1508962v-1.660018z"/>
        <path d="m-7.7598302-93.508803h4.8127326"/>
        <path d="m-8.0957363-94.338808v1.66001h4.8127316v-1.66001z"/>
      </g>
      <path d="m-3.8032605-97.000104c-0.4859501 2.1e-5 -0.8798664 0.393938-0.8798279 0.879831v13.729443c-3.85e-5 0.485884 0.3938778 0.879796 0.8798279 0.879825h6.7660231c1.0039724 0 1.9628023-0.194983 2.8444005-0.545196 2.2115056-0.878506 3.9271078-2.746962 4.5946549-5.055245 0.370266 0.216996 0.797066 0.342156 1.253942 0.342156 1.37686 0 2.509764-1.131021 2.509764-2.507885 0-1.376861-1.132904-2.507886-2.509764-2.507886-0.461141 0-0.890909 0.128744-1.263342 0.349671-0.6747119-2.291834-2.3849383-4.145872-4.5852549-5.019526-0.8815982-0.350038-1.8404281-0.545188-2.8444005-0.545188zm0.8779472 1.759651h7.0404999c0.6275956 0.12156 1.2195019 0.45184 1.759655 0.751989 1.8350022 1.019681 3.0718761 2.977303 3.0718761 5.233851 0 2.256459-1.2369798 4.209783-3.0718761 5.230082-0.5402051 0.300382-1.1319843 0.63222-1.759655 0.753876h-7.0404999v-11.005365zm13.486928 4.882288c0.01822 0.0646 0.03332 0.128482 0.04888 0.19365-0.01556-0.06513-0.03066-0.129047-0.04888-0.19365zm1.094145 0.02255c0.593204 0 1.058425 0.465226 1.058425 1.058424 0 0.593208-0.465221 1.058426-1.058425 1.058426-0.407653 0-0.670989-0.229192-0.882758-0.490957-0.124425-0.153805-0.173794-0.412094-0.173794-0.567469 0-0.15548 0.03604-0.300671 0.094-0.432385-0.0012-0.02002-0.0043-0.04023-0.0056-0.06016-0.01-0.06632-0.02101-0.131667-0.03383-0.197399 0.01284 0.06575 0.0238 0.13106 0.03383 0.197399 0.0024 0.01598 0.0071 0.03283 0.0093 0.04889 0.165183-0.364765 0.52555-0.614754 0.958786-0.614754z"/>
    </g>
  </g>
</svg>
