<svg version="1.1" viewBox="0 0 28 28" xmlns="http://www.w3.org/2000/svg">
  <g transform="translate(2.2356365,1.1999999)">
    <g transform="matrix(1.0895487,0,0,1.0895487,6.5895967,110.04827)" stroke-width=".917811">
      <g transform="matrix(.9178112 0 0 .9178112 -34.131519 -36.292282)">
        <path d="m50.133783-58.62358v1.790415h6.228938v-1.790415zm-21.771062 2.806392v1.790415h6.228937v-1.790415zm0-5.568151v1.790415h6.228937v-1.790415zm4.532004-4.19003a0.89549927 0.89538408 0 0 0-0.835391 0.882027v0.697511c0.06877 0.02828 0.163167 0.09051 0.300092 0.243318 0.218688 0.244064 0.477038 0.683511 0.697511 1.265253 0.05993 0.15815 0.115956 0.32919 0.170322 0.506912 0.189568-0.292394 0.396996-0.571275 0.622489-0.835391v-0.98341h0.58599c-0.211984-0.434493-0.453185-0.822925-0.744147-1.147648-0.224904-0.251003-0.493775-0.472354-0.796866-0.628572zm0.332534 3.595021c0.300361 0.981869 0.510018 2.245717 0.559632 3.637603 0.01544-0.150436 0.03676-0.299163 0.06286-0.446083v-4.026911c-0.225493 0.264116-0.432921 0.542997-0.622489 0.835391zm0.622489 3.19152c-0.02609 0.14692-0.04742 0.295647-0.06286 0.446083 0.0075 0.209645 0.01217 0.421876 0.01217 0.636681 0 0.214122-0.0048 0.425703-0.01217 0.634654 0.01542 0.149765 0.03689 0.29777 0.06286 0.444056zm0 2.161474c-0.02597-0.146286-0.04744-0.294291-0.06286-0.444056-0.04949 1.39237-0.259128 2.65562-0.559632 3.637603 0.189419 0.292163 0.397215 0.571446 0.622488 0.835391zm0.58599 5.012348h-0.58599v-0.98341c-0.225274-0.263945-0.43307-0.543228-0.622489-0.835391-0.05437 0.177656-0.110386 0.348762-0.170322 0.506912-0.220473 0.581742-0.478823 1.021188-0.697511 1.265253-0.136433 0.152265-0.231359 0.212844-0.300092 0.24129v0.701566a0.89549927 0.89538408 0 0 0 0.833364 0.882027c0.304026-0.156802 0.573424-0.378966 0.798893-0.630599 0.290962-0.324724 0.532163-0.713155 0.744147-1.147648zm-1.541013-13.960363c0.303091 0.156218 0.571962 0.377569 0.796866 0.628572 0.290962 0.324723 0.532163 0.713155 0.744147 1.147648h0.415668c1.360169-1.1167 3.09872-1.788386 4.990044-1.788386h-6.885896a0.89549927 0.89538408 0 0 0-0.06083 0.01217zm8.12073 1.77622c0.638794 0.123734 1.240637 0.460922 1.790418 0.766452v-1.660645c-5.09e-4 -0.116961-0.02393-0.232689-0.06894-0.340645-0.897258-0.35626-1.873678-0.553548-2.895483-0.553548-1.891325 0-3.629875 0.671686-4.990044 1.788386zm-6.164049 12.184143c1.360169 1.117134 3.09872 1.790413 4.990044 1.790413 1.021805 0 1.998225-0.199144 2.895483-0.555575 0.04476-0.107326 0.06817-0.22234 0.06894-0.338618v-1.662672c-0.549799 0.305718-1.151595 0.642635-1.790414 0.766452zm-0.415668 0c-0.211984 0.434493-0.453185 0.822924-0.744147 1.147648-0.225469 0.251633-0.494867 0.473797-0.798893 0.630599a0.89549927 0.89538408 0 0 0 0.06286 0.01217h6.885895c-1.891324 0-3.629875-0.673279-4.990044-1.790413zm0.119631-11.930686c-0.250899 0.227477-0.485645 0.472297-0.705621 0.729953v4.026911c0.18995-1.069605 0.656041-2.040295 1.324054-2.836681-0.123158-0.535911-0.26928-1.040593-0.442027-1.496405-0.0557-0.146962-0.115588-0.285819-0.176406-0.423778zm0.618433 9.755019c-0.668013-0.79672-1.134104-1.766945-1.324054-2.836681v4.028938c0.219976 0.25774 0.454722 0.50239 0.705621 0.729953 0.06082-0.137959 0.120709-0.276816 0.176406-0.423778 0.173063-0.456645 0.318739-0.961686 0.442027-1.498432zm7.563131-11.243314a0.89549927 0.89538408 0 0 1 0.06894 0.340645v1.660645c1.867488 1.037821 3.126635 3.028062 3.126635 5.324606 0 2.296542-1.259147 4.288212-3.126635 5.326633v1.662672a0.89549927 0.89538408 0 0 1-0.06894 0.338618c2.252409-0.894761 3.999431-2.798614 4.677785-5.150229-0.03512-0.0206-0.07341-0.03662-0.107465-0.0588-0.40167-0.261618-0.724357-0.633406-0.928663-1.070599-0.152456-0.326238-0.241291-0.687124-0.241291-1.068571 0-0.381445 0.08884-0.742333 0.241291-1.068571 0.186057-0.398144 0.470244-0.741829 0.823225-0.997602 0.06452-0.04676 0.132006-0.09104 0.200737-0.131798-0.686696-2.332541-2.426221-4.218484-4.665619-5.107649zm4.967739 6.80479c-0.08171-0.540195-0.255867-1.060405-0.502857-1.565344-0.352981 0.255773-0.637168 0.599458-0.823225 0.997602v2.137142c0.204306 0.437193 0.526993 0.808981 0.928663 1.070599 0.141729-0.309749 0.250391-0.629594 0.32848-0.95705 0.03641-0.244853 0.06385-0.492613 0.07705-0.744147-0.06029-0.133717-0.09935-0.279417-0.09935-0.437973 0-0.158207 0.03636-0.305966 0.0953-0.439999-0.0011-0.02036-0.0027-0.04051-4e-3 -0.06083zm-1.326082 1.5694v-2.137142c-0.152457 0.326238-0.241291 0.687126-0.241291 1.068571 0 0.381447 0.08884 0.742333 0.241291 1.068571zm1.023962-3.266542c-0.06874 0.04077-0.136211 0.08505-0.200737 0.131798 0.24699 0.504939 0.421139 1.025149 0.502857 1.565344-0.03858-0.584802-0.14211-1.153627-0.30212-1.697142zm0.233181 3.380091c-0.07809 0.327456-0.186751 0.647301-0.32848 0.95705 0.03406 0.02219 0.07235 0.0382 0.107465 0.0588 0.09535-0.330542 0.169482-0.669244 0.221015-1.01585zm0.07705-0.744147c-0.01321 0.251534-0.04064 0.499294-0.07705 0.744147 0.05214-0.218614 0.09345-0.439541 0.111519-0.667097-0.01316-0.0245-0.02295-0.0515-0.03447-0.07705zm-0.310231-2.635944c0.16001 0.543515 0.263547 1.11234 0.30212 1.697142 0.0025 0.01623 0.0058 0.03239 0.0081 0.04866 0.168117-0.371241 0.536397-0.624515 0.977328-0.624515 0.603739 0 1.076681 0.472943 1.076681 1.076681 0 0.60374-0.472942 1.076681-1.076681 1.076681-0.414894 0-0.762542-0.225998-0.942858-0.561658-0.01806 0.227556-0.05938 0.448483-0.11152 0.667097-0.05153 0.346607-0.125664 0.685308-0.221014 1.015851 0.377041 0.22117 0.810041 0.354839 1.275392 0.354839 1.401315 0 2.552809-1.151494 2.552809-2.55281 0-1.401315-1.151494-2.552809-2.552809-2.552809-0.469254 0-0.908553 0.130042-1.287558 0.354837zm-12.966816-3.87281h-0.58599v0.98341c0.219976-0.257656 0.454722-0.502476 0.705621-0.729953-0.03827-0.08681-0.07908-0.170344-0.119631-0.253457zm0.738064 2.17364c-0.668013 0.796386-1.134104 1.767076-1.324054 2.836681v2.161474c0.18995 1.069736 0.656041 2.039961 1.324054 2.836681 0.267049-1.162616 0.415669-2.490663 0.415669-3.915391 0-1.425927-0.148189-2.755537-0.415669-3.919445zm-0.618433 9.757046c-0.250899-0.227563-0.485645-0.472213-0.705621-0.729953v0.98341h0.58599c0.04055-0.08311 0.08136-0.166646 0.119631-0.253457z" stroke-linejoin="round" stroke-width="1.09545"/>
      </g>
    </g>
  </g>
</svg>
