<svg version="1.1" viewBox="0 0 24 24" xml:space="preserve" xmlns="http://www.w3.org/2000/svg">
  <path d="m7.032 11.713v-6.3h2.466q0.648 0 1.07 0.27 0.433 0.26 0.64 0.683 0.216 0.414 0.216 0.873v0.216q0 0.468-0.216 0.9-0.207 0.432-0.64 0.711-0.422 0.27-1.07 0.27h-1.278v2.376zm1.188-3.51h1.16q0.397 0 0.622-0.217 0.234-0.216 0.234-0.558v-0.108q0-0.342-0.234-0.558-0.225-0.216-0.621-0.216h-1.161zm4.32 3.51v-1.135h1.512v-4.032h-1.512v-1.133h4.212v1.134h-1.512v4.032h1.512v1.134zm-5.508 6.75v-6.3h2.466q0.648 0 1.07 0.27 0.433 0.26 0.64 0.683 0.216 0.414 0.216 0.873v0.216q0 0.468-0.216 0.9-0.207 0.432-0.64 0.711-0.422 0.27-1.07 0.27h-1.278v2.376zm1.188-3.51h1.16q0.397 0 0.622-0.217 0.234-0.216 0.234-0.558v-0.108q0-0.342-0.234-0.558-0.225-0.216-0.621-0.216h-1.161zm6.426 3.635q-1.08 0-1.701-0.657-0.621-0.666-0.621-1.917v-1.404q0-1.215 0.62-1.89 0.622-0.684 1.702-0.684t1.7 0.684q0.622 0.675 0.622 1.89v1.404q0 1.251-0.621 1.917-0.621 0.657-1.701 0.657m0-1.08q0.648 0 0.89-0.396 0.244-0.396 0.244-1.026v-1.548q0-0.396-0.117-0.72t-0.37-0.513q-0.242-0.189-0.647-0.189t-0.657 0.19q-0.252 0.188-0.37 0.512-0.107 0.324-0.107 0.72v1.548q0 0.63 0.243 1.026t0.89 0.396m-9.9477344-15.9962813c-0.865334 0-1.4720882 0.4349367-1.9492187 0.9238282-0.4771306 0.4888914-0.8828125 1.0726437-0.8828125 1.9160156v1.359375h-1.8652344v2.25h1.8652344v1.0996094h-1.86718753v2.2500001h1.86718753v1.097656h-1.86718753v2.25h1.86718753v1.101563h-1.86718753v2.25h1.86718753v1.636718c0 0.843372 0.4057925 1.426876 0.8828125 1.916016 0.4770199 0.48914 1.0834021 0.923828 1.9492187 0.923828h14.6035154c0.865817 0 1.472644-0.433412 1.951172-0.921875s0.886719-1.071498 0.886719-1.917969v-1.636718h1.861328v-2.25h-1.861328v-1.09961h1.861328v-2.25h-1.861328v-1.099609h1.861328v-2.2500001h-1.861328v-1.0996094h1.861328v-2.25h-1.861328v-1.359375c0-0.8464711-0.408081-1.4297547-0.886719-1.9179687-0.478638-0.4882141-1.085838-0.921875-1.951172-0.9218751zm0 2.2500001h14.6035154c-0.08833 0 0.162091 0.060761 0.345703 0.2480468 0.183613 0.187286 0.242188 0.462268 0.242188 0.3417969v15.2949215c0-0.120471-0.06042 0.156213-0.244141 0.34375-0.183722 0.187537-0.432566 0.246094-0.34375 0.246094h-14.6035154c0.088817 0-0.1556605-0.05728-0.3378906-0.244141-0.1822301-0.18686-0.2441406-0.463075-0.2441406-0.345703v-15.2949215c0 0.1173719 0.060068-0.1571414 0.2421875-0.34375 0.1821194-0.1866086 0.4281777-0.2460937 0.3398437-0.2460937z" fill="#000000f0" />
</svg>
