<svg version="1.1" viewBox="0 0 24 24" xml:space="preserve" xmlns="http://www.w3.org/2000/svg">
  <path d="m7.194 11.712v-6.3h2.466q0.648 0 1.07 0.27 0.433 0.261 0.64 0.684 0.216 0.414 0.216 0.873v0.216q0 0.468-0.216 0.9-0.207 0.432-0.64 0.711-0.422 0.27-1.07 0.27h-1.278v2.376zm1.188-3.51h1.16q0.397 0 0.622-0.216 0.234-0.216 0.234-0.558v-0.108q0-0.342-0.234-0.558-0.225-0.216-0.621-0.216h-1.161zm4.32 3.51v-1.134h1.512v-4.032h-1.512v-1.134h4.212v1.134h-1.512v4.032h1.512v1.134zm-3.312 6.876q-0.828 0-1.395-0.297-0.558-0.306-0.846-0.828-0.28-0.522-0.28-1.179v-0.27h1.189v0.216q0 0.567 0.333 0.909 0.333 0.333 1.017 0.333 0.54 0 0.8-0.234 0.262-0.234 0.262-0.558 0-0.207-0.1-0.378-0.098-0.18-0.36-0.306-0.26-0.135-0.746-0.216-0.63-0.108-1.125-0.315-0.486-0.207-0.774-0.576-0.28-0.378-0.28-0.999v-0.054q0-0.513 0.27-0.918 0.27-0.414 0.757-0.648 0.495-0.234 1.152-0.234 0.747 0 1.26 0.27t0.774 0.72q0.27 0.441 0.27 0.954v0.324h-1.188v-0.216q0-0.378-0.297-0.657-0.288-0.279-0.82-0.279-0.44 0-0.71 0.189-0.261 0.18-0.261 0.495 0 0.324 0.279 0.522 0.288 0.198 1.07 0.342 0.99 0.171 1.513 0.603 0.522 0.423 0.522 1.251v0.108q0 0.873-0.612 1.404-0.612 0.522-1.674 0.522m5.418 0q-1.08 0-1.701-0.657-0.621-0.666-0.621-1.917v-1.404q0-1.215 0.62-1.89 0.622-0.684 1.702-0.684t1.7 0.684q0.622 0.675 0.622 1.89v1.404q0 1.251-0.621 1.917-0.621 0.657-1.701 0.657m0-1.08q0.648 0 0.89-0.396 0.244-0.396 0.244-1.026v-1.548q0-0.396-0.117-0.72t-0.37-0.513q-0.242-0.189-0.647-0.189t-0.657 0.189-0.37 0.513q-0.107 0.324-0.107 0.72v1.548q0 0.63 0.243 1.026t0.89 0.396m-10.1077813-15.9962813c-0.8649999 0-1.4743154 0.4333013-1.9531249 0.9218751-0.4788096 0.4885737-0.8847657 1.0725307-0.8847657 1.9179687v1.359375h-1.8613281v2.25h1.8613281v1.0996094h-1.8613281v2.2500001h1.8613281v1.099609h-1.8613281v2.25h1.8613281v1.09961h-1.8613281v2.25h1.8613281v1.638671c0 0.845439 0.4059561 1.427442 0.8847657 1.916016 0.4788095 0.488574 1.0881249 0.921875 1.9531249 0.921875h14.6015623c0.865 0 1.474316-0.433301 1.953125-0.921875 0.47881-0.488574 0.886719-1.070577 0.886719-1.916016v-1.638671h1.859375v-2.25h-1.859375v-7.7988285h1.859375v-2.25h-1.859375v-1.359375c0-0.845438-0.407909-1.429395-0.886719-1.9179687-0.478809-0.4885738-1.088125-0.921875-1.953125-0.9218751zm0 2.2500001h14.6015623c-0.085 0 0.162513 0.061121 0.345703 0.2480468 0.183191 0.1869263 0.244141 0.4612349 0.244141 0.3417969v15.2968745c0-0.119438-0.06095 0.154871-0.244141 0.341797-0.18319 0.186927-0.430703 0.246094-0.345703 0.246094h-14.6015623c0.085 0-0.1625126-0.05917-0.3457031-0.246094-0.1831904-0.186926-0.2421875-0.461235-0.2421875-0.341797v-15.2968745c0 0.119438 0.058997-0.1548706 0.2421875-0.3417969 0.1831905-0.1869262 0.4307031-0.2480468 0.3457031-0.2480468z" fill="#000000f0" />
</svg>
