<svg version="1.1" viewBox="0 0 28 28" xmlns="http://www.w3.org/2000/svg">
  <g transform="translate(2.2356365,1.1999999)">
    <g transform="matrix(1.0859764,0,0,1.0859764,73.250918,137.60761)" stroke-width=".92083">
      <g fill="none" stroke="#000" stroke-linejoin="round">
        <path d="m-46.956237-120.20788h3.196271" stroke-width="1.58843"/>
        <path d="m-46.923332-109.44798h3.196271" stroke-width="1.58843"/>
        <path d="m-48.518735-125.63718h-16.207454c-0.831 0-1.5 0.669-1.5 1.5v18.42108c0 0.831 0.669 1.5 1.5 1.5h16.207454c0.831 0 1.5-0.669 1.5-1.5v-18.42108c0-0.831-0.669-1.5-1.5-1.5z" stroke-width="2.07187"/>
        <g stroke-width="1.58843">
          <path d="m-69.422462-122.97189h3.196273"/>
          <path d="m-69.422462-112.24488h3.196273"/>
          <path d="m-69.422462-117.60838h3.196273"/>
          <path d="m-69.422462-106.88139h3.196273"/>
        </g>
      </g>
      <path d="m-56.819574-120.56366c0-1.61971-1.140192-2.40826-3.154176-2.40826h-2.323008v7.38461h1.747584v-2.46154h0.809856c1.736928 0 2.919744-0.7992 2.919744-2.51481zm-1.790208 0c0 0.87379-0.468864 1.25741-1.246752 1.25741h-0.69264v-2.41892h0.607392c0.884448 0 1.332 0.37296 1.332 1.16151zm7.640356-2.40826h-4.7952v1.27872h1.523808v4.81651h-1.523808v1.28938h4.7952v-1.28938h-1.523808v-4.81651h1.523808z" stroke-width=".919907"/>
      <path d="m-56.904822-109.22568c0-1.35331-0.820512-1.95005-2.227104-2.37629-1.17216-0.3623-1.502496-0.55411-1.502496-1.02297 0-0.47952 0.436896-0.72461 1.097568-0.72461 0.596736 0 1.193472 0.20246 1.694304 0.61805l0.820512-0.94839c-0.63936-0.60739-1.513152-0.95904-2.642688-0.95904-1.534464 0-2.781216 0.78855-2.781216 2.15252 0 1.11888 0.650016 1.76889 2.386944 2.30169 1.022976 0.30903 1.332 0.56477 1.332 1.09757 0 0.57542-0.490176 0.90576-1.22544 0.90576-0.788544 0-1.449216-0.2664-1.992672-0.74592l-0.884448 0.98035c0.618048 0.60739 1.523808 1.0656 2.919744 1.0656 1.886112 0 3.004992-0.95904 3.004992-2.34432zm6.489508-1.53446c0-2.3976-1.01232-3.87879-2.951712-3.87879s-2.951712 1.53447-2.951712 3.87879c0 2.3976 1.01232 3.87878 2.951712 3.87878s2.951712-1.53446 2.951712-3.87878zm-1.790208 0c0 1.79021-0.309024 2.60006-1.161504 2.60006-0.820512 0-1.161504-0.78854-1.161504-2.60006s0.330336-2.60007 1.161504-2.60007 1.161504 0.78855 1.161504 2.60007z" stroke-width=".919907"/>
    </g>
  </g>
</svg>
