<svg version="1.1" viewBox="0 0 24 24" xml:space="preserve" xmlns="http://www.w3.org/2000/svg">
  <path d="m6.251875 15.629688v-7.2581255h2.77875q0.74625 0 1.254375 0.27 0.508125 0.2690625 0.767812 0.725625 0.258751 0.4453125 0.258751 1.0059375v0.248437q0 0.44625-0.248438 0.84-0.239063 0.384375-0.726563 0.590625v0.1875q0.362813 0.04125 0.570938 0.279375 0.2175 0.239063 0.2175 0.601875v2.50875h-1.36875v-2.176875q0-0.249375-0.135-0.405-0.1246875-0.155625-0.4246875-0.155625h-1.5759375v2.7375zm1.36875-4.043438h1.3059375q0.4978125 0 0.7575-0.239062 0.25875-0.238126 0.25875-0.6525v-0.124688q0-0.362812-0.25875-0.6225-0.2596875-0.2690625-0.7575-0.2690625h-1.3059375zm7.49625 4.18875q-0.953438 0-1.606875-0.342187-0.643125-0.3525-0.975-0.953438-0.321563-0.601875-0.321563-1.359375v-0.310312h1.36875v0.248437q0 0.653437 0.384375 1.047188 0.383438 0.384375 1.171875 0.384375 0.621563 0 0.9225-0.27 0.300938-0.27 0.3-0.643125 0-0.238126-0.113437-0.435-0.114375-0.207188-0.415313-0.3525-0.3-0.155626-0.860625-0.249376-0.725625-0.12375-1.295625-0.362812-0.560624-0.238125-0.891562-0.66375-0.321563-0.435-0.321563-1.150313v-0.062812q0-0.590625 0.31125-1.0575 0.310313-0.4771875 0.870938-0.74625 0.57-0.27 1.326562-0.27 0.860625 0 1.452188 0.31125 0.591562 0.31125 0.890625 0.8296875 0.312187 0.508125 0.312187 1.0987495v0.373125h-1.36875v-0.248437q0-0.435938-0.342187-0.7565625-0.331875-0.3215625-0.944063-0.3215625-0.508125 0-0.818437 0.2175-0.300938 0.2071875-0.300938 0.57 0 0.373125 0.321563 0.601875 0.331875 0.227812 1.23375 0.39375 1.14 0.196875 1.741875 0.694687 0.600937 0.4875 0.600937 1.440938v0.124687q0 1.005938-0.704999 1.618125-0.705001 0.600938-1.928438 0.600938m-10.9215625-14.3101563c-0.9483053 0-1.4633162 0.6151642-1.796875 1.1328126-0.3335588 0.5176483-0.5488281 1.0521087-0.5488281 1.7109374v15.3242183c0 0.845381 0.407398 1.431345 0.8867187 1.919922 0.4793207 0.488578 1.0877459 0.920915 1.9492188 0.923828l14.6015621 0.04297c0.888191 3e-3 1.494253-0.456348 1.96875-0.957031 0.474498-0.500683 0.873047-1.084787 0.873047-1.929688v-11.7187505h1.861328v-2.25h-1.861328v-1.3554688c0-0.8453809-0.407608-1.4313848-0.886719-1.9199218-0.47911-0.4885371-1.085689-0.9209161-1.947265-0.9238282a1.1251125 1.1251125 0 0 0-0.0039 0zm0 2.2500001h15.0917965c-0.08345-2.821e-4 0.166376 0.061208 0.34961 0.2480468 0.183233 0.1868384 0.242187 0.4595019 0.242187 0.3457031v15.3242183c0-0.113318-0.06825 0.184848-0.255859 0.382813-0.187612 0.197965-0.437254 0.253537-0.328125 0.253906l-14.6015626-0.042969c0.08241 2.79e-4 -0.1683051-0.06125-0.3515625-0.248046-0.1832574-0.186797-0.2421875-0.459502-0.2421875-0.345704v-15.3242183c0 0.015072 0.073246-0.3118466 0.1894531-0.4921874 0.1162068-0.1803409 0.2123678-0.1015626-0.09375-0.1015625zm-4.1953125 1.9804687v2.25h2.984375v-2.25zm21.003906 0.015625v2.25h2.984375v-2.25zm0 10.0488285v2.25h2.984375v-2.25zm-21.00195287 0.0078v2.25h2.98437497v-2.25z" fill="#000000f0"/>
</svg>
