<svg version="1.1" viewBox="0 0 24 24" xml:space="preserve" xmlns="http://www.w3.org/2000/svg">
  <path d="m9.39 11.901q-0.828 0-1.395-0.297-0.558-0.306-0.846-0.828-0.28-0.522-0.28-1.179v-0.27h1.189v0.216q0 0.567 0.333 0.909 0.333 0.333 1.017 0.333 0.54 0 0.8-0.234 0.262-0.234 0.262-0.558 0-0.207-0.1-0.378-0.098-0.18-0.36-0.306-0.26-0.135-0.746-0.216-0.63-0.108-1.125-0.315-0.486-0.207-0.774-0.576-0.28-0.378-0.28-0.999v-0.054q0-0.513 0.27-0.918 0.27-0.414 0.757-0.648 0.495-0.234 1.152-0.234 0.747 0 1.26 0.27t0.774 0.72q0.27 0.441 0.27 0.954v0.324h-1.188v-0.216q0-0.378-0.297-0.657-0.288-0.279-0.82-0.279-0.44 0-0.71 0.189-0.261 0.18-0.261 0.495 0 0.324 0.279 0.522 0.288 0.198 1.07 0.342 0.99 0.171 1.513 0.603 0.522 0.423 0.522 1.251v0.108q0 0.873-0.612 1.404-0.612 0.522-1.674 0.522m3.312-0.126v-1.134h1.512v-4.032h-1.512v-1.134h4.212v1.134h-1.512v4.032h1.512v1.134zm-5.508 6.75v-6.3h2.466q0.648 0 1.07 0.27 0.433 0.261 0.64 0.684 0.216 0.414 0.216 0.873v0.216q0 0.468-0.216 0.9-0.207 0.432-0.64 0.711-0.422 0.27-1.07 0.27h-1.278v2.376zm1.188-3.51h1.16q0.397 0 0.622-0.216 0.234-0.216 0.234-0.558v-0.108q0-0.342-0.234-0.558-0.225-0.216-0.621-0.216h-1.161zm6.426 3.636q-1.08 0-1.701-0.657-0.621-0.666-0.621-1.917v-1.404q0-1.215 0.62-1.89 0.622-0.684 1.702-0.684t1.7 0.684q0.622 0.675 0.622 1.89v1.404q0 1.251-0.621 1.917-0.621 0.657-1.701 0.657m0-1.08q0.648 0 0.89-0.396 0.244-0.396 0.244-1.026v-1.548q0-0.396-0.117-0.72t-0.37-0.513q-0.242-0.189-0.647-0.189t-0.657 0.189-0.37 0.513q-0.107 0.324-0.107 0.72v1.548q0 0.63 0.243 1.026t0.89 0.396m-14.807-6.565141v2.263672h2.9902344v-2.263672zm0 5.023438v2.263672h2.9902344v-2.263672zm4.3925781-14.2539064c-1.3453399 0-2.5351562 1.0675164-2.5351562 2.4453125v16.1425779c0 1.377796 1.1898167 2.445313 2.5351562 2.445313h15.1640629c1.345339 0 2.535156-1.067517 2.535156-2.445313v-16.1425779c0-1.3777956-1.189816-2.4453125-2.535156-2.4453125zm0 2.2636719h15.1640629c0.207674 0 0.271484 0.101223 0.271484 0.1816406v16.1425779c0 0.08042-0.06381 0.181641-0.271484 0.181641h-15.1640629c-0.2076734 0-0.2714843-0.101223-0.2714844-0.181641v-16.1425779c0-0.080417 0.063811-0.1816406 0.2714844-0.1816406zm-4.3925781 1.9414062v2.2636719h2.9902344v-2.2636719zm21.009766-0.00781v2.2636694h2.990234v-2.2636719zm0 3.3496094v2.2636699h2.990234v-2.2636724zm0 3.3496094v2.263672h2.990234v-2.263672zm0 3.349609v2.263672h2.990234v-2.263672z" fill="#000000f0"/>
</svg>
