<svg version="1.1" viewBox="0 0 28 28" xmlns="http://www.w3.org/2000/svg">
  <g transform="translate(2.2356365,1.1999999)">
    <g transform="matrix(1.0893961,0,0,1.0893961,-2.1822907,-1.1442699)" stroke-width=".91794">
      <g fill="none" stroke="#000">
        <g stroke-linejoin="round" stroke-width="1.58345">
          <path d="m22.457073 4.7547529h3.196273"/>
          <path d="m22.457073 15.481757h3.196273"/>
          <path d="m22.457073 10.118257h3.196273"/>
          <path d="m22.457073 20.845247h3.196273"/>
        </g>
        <path d="m0 6.673075h3.19627" stroke-width="1.58345"/>
        <path d="m4.69627 2.08946h16.20746c0.831 0 1.5 0.669 1.5 1.5v18.421085c0 0.831-0.669 1.5-1.5 1.5h-16.20746c-0.831 0-1.5-0.669-1.5-1.5v-18.421085c0-0.831 0.669-1.5 1.5-1.5z" stroke-linejoin="round" stroke-width="2.06536"/>
        <path d="m1.9073486e-7 12.911822h3.196272" stroke-width="1.58345"/>
        <path d="m2.0964921e-7 19.150572h3.196272" stroke-width="1.58345"/>
        <path d="m4.6962732 2.0894607h16.207454c0.831 0 1.5 0.669 1.5 1.5v18.421079c0 0.831-0.669 1.5-1.5 1.5h-16.207454c-0.831 0-1.5-0.669-1.5-1.5v-18.421079c0-0.831 0.669-1.5 1.5-1.5z" stroke-linejoin="round" stroke-width="2.06536"/>
      </g>
      <g stroke-width=".917019" aria-label="SI
PO">
        <path d="m12.517613 10.072063c0-1.3533116-0.820512-1.9500477-2.227104-2.3762877-1.1721596-0.362304-1.5024956-0.554112-1.5024956-1.022976 0-0.47952 0.436896-0.724608 1.097568-0.724608 0.5967356 0 1.1934716 0.202464 1.6943036 0.618048l0.820512-0.948384c-0.63936-0.607392-1.513152-0.95904-2.6426876-0.95904-1.534464 0-2.781216 0.788544-2.781216 2.152512 0 1.11888 0.650016 1.7688961 2.386944 2.3016961 1.0229756 0.309024 1.3319996 0.564768 1.3319996 1.0975676 0 0.575424-0.490176 0.90576-1.2254396 0.90576-0.788544 0-1.449216-0.2664-1.992672-0.74592l-0.884448 0.980352c0.618048 0.607392 1.523808 1.0656 2.919744 1.0656 1.8861116 0 3.0049916-0.95904 3.0049916-2.34432zm5.935397-5.2214397h-4.7952v1.27872h1.523808v4.8165117h-1.523808v1.289376h4.7952v-1.289376h-1.523808v-4.8165117h1.523808z"/>
        <path d="m12.602861 15.78368c0-1.619712-1.140192-2.408256-3.1541756-2.408256h-2.323008v7.384608h1.747584v-2.461536h0.809856c1.7369276 0 2.9197436-0.7992 2.9197436-2.514816zm-1.790208 0c0 0.873792-0.468864 1.257408-1.2467516 1.257408h-0.69264v-2.418912h0.607392c0.8844476 0 1.3319996 0.37296 1.3319996 1.161504zm8.194469 1.27872c0-2.3976-1.01232-3.878784-2.951712-3.878784s-2.951712 1.534464-2.951712 3.878784c0 2.3976 1.01232 3.878784 2.951712 3.878784s2.951712-1.534464 2.951712-3.878784zm-1.790208 0c0 1.790208-0.309024 2.600064-1.161504 2.600064-0.820512 0-1.161504-0.788544-1.161504-2.600064s0.330336-2.600064 1.161504-2.600064 1.161504 0.788544 1.161504 2.600064z"/>
      </g>
    </g>
  </g>
</svg>
