<svg version="1.1" viewBox="0 0 28 28" xmlns="http://www.w3.org/2000/svg">
  <g transform="translate(2.2356365,1.1999999)">
    <g transform="matrix(1.0861363,0,0,1.0861363,-2.0925356,-1.1025447)" stroke-width=".920695">
      <path d="m12.469914 10.072064c0-1.3533117-0.820512-1.9500477-2.227104-2.3762877-1.17216-0.362304-1.502496-0.554112-1.502496-1.022976 0-0.47952 0.436896-0.724608 1.097568-0.724608 0.596736 0 1.193472 0.202464 1.694304 0.618048l0.820512-0.948384c-0.63936-0.607392-1.513152-0.95904-2.642688-0.95904-1.534464 0-2.781216 0.788544-2.781216 2.152512 0 1.11888 0.650016 1.768896 2.386944 2.301696 1.022976 0.309024 1.332 0.564768 1.332 1.0975677 0 0.575424-0.490176 0.90576-1.22544 0.90576-0.788544 0-1.449216-0.2664-1.992672-0.74592l-0.8844481 0.980352c0.6180481 0.607392 1.5238081 1.0656 2.9197441 1.0656 1.886112 0 3.004992-0.95904 3.004992-2.34432zm5.935396-5.2214397h-4.7952v1.27872h1.523808v4.8165117h-1.523808v1.289376h4.7952v-1.289376h-1.523808v-4.8165117h1.523808z" stroke-width=".919771"/>
      <path d="m12.469914 18.596865c0-1.353312-0.820512-1.950048-2.227104-2.376288-1.17216-0.362304-1.502496-0.554112-1.502496-1.022976 0-0.47952 0.436896-0.724608 1.097568-0.724608 0.596736 0 1.193472 0.202464 1.694304 0.618048l0.820512-0.948384c-0.63936-0.607393-1.513152-0.959041-2.642688-0.959041-1.534464 0-2.781216 0.788545-2.781216 2.152513 0 1.11888 0.650016 1.768896 2.386944 2.301696 1.022976 0.309024 1.332 0.564768 1.332 1.097568 0 0.575424-0.490176 0.90576-1.22544 0.90576-0.788544 0-1.449216-0.2664-1.992672-0.74592l-0.8844481 0.980352c0.6180481 0.607392 1.5238081 1.0656 2.9197441 1.0656 1.886112 0 3.004992-0.95904 3.004992-2.34432zm6.489508-1.534464c0-2.3976-1.01232-3.878785-2.951712-3.878785s-2.951712 1.534465-2.951712 3.878785c0 2.3976 1.01232 3.878784 2.951712 3.878784s2.951712-1.534464 2.951712-3.878784zm-1.790208 0c0 1.790208-0.309024 2.600064-1.161504 2.600064-0.820512 0-1.161504-0.788544-1.161504-2.600064s0.330336-2.600064 1.161504-2.600064 1.161504 0.788544 1.161504 2.600064z" stroke-width=".919771"/>
      <g fill="none" stroke="#000" stroke-linejoin="round">
        <path d="m22.418525 7.518763h3.196271" stroke-width="1.5882"/>
        <path d="m22.45143 18.27866h3.196271" stroke-width="1.5882"/>
        <path d="m20.856027 2.0894581h-16.207454c-0.831 0-1.5 0.669-1.5 1.5v18.421084c0 0.831 0.669 1.5 1.5 1.5h16.207454c0.831 0 1.5-0.669 1.5-1.5v-18.421084c0-0.831-0.669-1.5-1.5-1.5z" stroke-width="2.07156"/>
        <path d="m1e-6 7.528175h3.196271" stroke-width="1.5882"/>
        <path d="m0.032906 18.288072h3.196271" stroke-width="1.5882"/>
      </g>
    </g>
  </g>
</svg>
