<svg version="1.1" viewBox="0 0 24 24" xml:space="preserve" xmlns="http://www.w3.org/2000/svg">
  
  <path d="m9.39 11.901q-0.828 0-1.395-0.297-0.558-0.306-0.846-0.828-0.28-0.522-0.28-1.179v-0.27h1.189v0.216q0 0.567 0.333 0.909 0.333 0.333 1.017 0.333 0.54 0 0.8-0.234 0.262-0.234 0.262-0.558 0-0.207-0.1-0.378-0.098-0.18-0.36-0.306-0.26-0.135-0.746-0.216-0.63-0.108-1.125-0.315-0.486-0.207-0.774-0.576-0.28-0.378-0.28-0.999v-0.054q0-0.513 0.27-0.918 0.27-0.414 0.757-0.648 0.495-0.234 1.152-0.234 0.747 0 1.26 0.27t0.774 0.72q0.27 0.441 0.27 0.954v0.324h-1.188v-0.216q0-0.378-0.297-0.657-0.288-0.279-0.82-0.279-0.44 0-0.71 0.189-0.261 0.18-0.261 0.495 0 0.324 0.279 0.522 0.288 0.198 1.07 0.342 0.99 0.171 1.513 0.603 0.522 0.423 0.522 1.251v0.108q0 0.873-0.612 1.404-0.612 0.522-1.674 0.522m3.312-0.126v-1.134h1.512v-4.032h-1.512v-1.134h4.212v1.134h-1.512v4.032h1.512v1.134zm-3.312 6.876q-0.828 0-1.395-0.297-0.558-0.306-0.846-0.828-0.28-0.522-0.28-1.179v-0.27h1.189v0.216q0 0.567 0.333 0.909 0.333 0.333 1.017 0.333 0.54 0 0.8-0.234 0.262-0.234 0.262-0.558 0-0.207-0.1-0.378-0.098-0.18-0.36-0.306-0.26-0.135-0.746-0.216-0.63-0.108-1.125-0.315-0.486-0.207-0.774-0.576-0.28-0.378-0.28-0.999v-0.054q0-0.513 0.27-0.918 0.27-0.414 0.757-0.648 0.495-0.234 1.152-0.234 0.747 0 1.26 0.27t0.774 0.72q0.27 0.441 0.27 0.954v0.324h-1.188v-0.216q0-0.378-0.297-0.657-0.288-0.279-0.82-0.279-0.44 0-0.71 0.189-0.261 0.18-0.261 0.495 0 0.324 0.279 0.522 0.288 0.198 1.07 0.342 0.99 0.171 1.513 0.603 0.522 0.423 0.522 1.251v0.108q0 0.873-0.612 1.404-0.612 0.522-1.674 0.522m5.418 0q-1.08 0-1.701-0.657-0.621-0.666-0.621-1.917v-1.404q0-1.215 0.62-1.89 0.622-0.684 1.702-0.684t1.7 0.684q0.622 0.675 0.622 1.89v1.404q0 1.251-0.621 1.917-0.621 0.657-1.701 0.657m0-1.08q0.648 0 0.89-0.396 0.244-0.396 0.244-1.026v-1.548q0-0.396-0.117-0.72t-0.37-0.513q-0.242-0.189-0.647-0.189t-0.657 0.189-0.37 0.513q-0.107 0.324-0.107 0.72v1.548q0 0.63 0.243 1.026t0.89 0.396m-10.1077813-16.0573281c-0.8645192 0-1.4739124 0.4314867-1.9531249 0.9199219-0.4792126 0.4884351-0.8867188 1.0721785-0.8867188 1.9179687v1.3613281h-1.859375v2.25h1.859375v7.7734374h-1.859375v2.25h1.859375v1.662109c0 0.845275 0.4077569 1.427468 0.8867188 1.916016 0.4789618 0.488548 1.0886057 0.921875 1.9531249 0.921875h14.6015623c0.864519 0 1.474163-0.433327 1.953125-0.921875s0.886719-1.070741 0.886719-1.916016v-1.626953h1.859375v-2.25h-1.859375v-7.8085934h1.859375v-2.25h-1.859375v-1.3613281c0-0.8452744-0.407757-1.4274673-0.886719-1.9160156s-1.088606-0.921875-1.953125-0.921875zm0 2.25h14.6015623c-0.08452 0 0.162665 0.059392 0.345703 0.2460937 0.183039 0.1867017 0.244141 0.4600713 0.244141 0.3417969v15.2968745c0-0.118274-0.0611 0.155096-0.244141 0.341797-0.183038 0.186702-0.430222 0.246094-0.345703 0.246094h-14.6015623c0.084519 0-0.1626649-0.05939-0.3457031-0.246094-0.1830382-0.186701-0.2441406-0.460071-0.2441406-0.341797v-15.2968745c0 0.1187902 0.060853-0.154982 0.2441406-0.3417969 0.1832875-0.1868148 0.4302224-0.2460937 0.3457031-0.2460937z"/>
</svg>
