<svg version="1.1" viewBox="0 0 24 24" xml:space="preserve" xmlns="http://www.w3.org/2000/svg">
  <path d="m11.164 16.433v-7.27h-2.356v-1.596h6.384v1.596h-2.356v7.27zm-7.784-2.341 1.92-2.37-1.92-2.092zm-0.1085156-4.7423906a0.30003001 0.30003001 0 0 0-0.1914063 0.28125v4.4609376a0.30003001 0.30003001 0 0 0 0.5332032 0.189453l1.9199218-2.371094a0.30003001 0.30003001 0 0 0-0.0117187-0.390625l-1.9199219-2.0917966a0.30003001 0.30003001 0 0 0-0.3300781-0.078125zm0.4082031 1.0507816 1.2246094 1.333984-1.2246094 1.509766zm0.7226562-8.8886723a1.1251125 1.1251125 0 0 0-0.00391 0.00391c-1.3403311 0.00242-2.5273399 1.0613251-2.52734 2.4335901v6.7851562h-1.8710937v2.25h1.8710937v7.064453c1e-7 1.373948 1.189028 2.4375 2.53125 2.4375h15.1953123c1.342222 0 2.53125-1.06171 2.53125-2.435547v-2.041015h1.871094v-2.25h-1.871094v-7.7968754h1.871094v-2.25h-1.871094v-1.7636718c0-1.3728047-1.18875-2.4375-2.53125-2.4375001zm0 2.2500001h15.1953093c0.2175 0 0.28125 0.1063046 0.28125 0.1875v16.1015622c0 0.08016-0.06547 0.185547-0.28125 0.185547h-15.1953093c-0.2157779 0-0.28125-0.105448-0.28125-0.1875v-16.0996092c0-0.080164 0.065472-0.1855469 0.28125-0.1855469a1.1251125 1.1251125 0 0 0 0-0.00195z" fill="#000000f0"/>
</svg>
