<svg version="1.1" viewBox="0 0 28 28" xmlns="http://www.w3.org/2000/svg">
  <g transform="matrix(1.0937501,0,0,1.0937501,28.660136,149.02686)">
    <g fill="none" stroke="#000" stroke-linejoin="round">
      <path d="m-21.50728-134.16366h16.207454c0.831 0 1.5 0.669 1.5 1.5v18.42109c0 0.831-0.669 1.5-1.5 1.5h-16.207454c-0.831 0-1.5-0.669-1.5-1.5v-18.42109c0-0.831 0.669-1.5 1.5-1.5z" stroke-width="2.25"/>
      <g stroke-width="1.725">
        <path d="m-3.7998247-128.29104h3.196272"/>
        <path d="m-3.7998247-118.6152h3.196272"/>
        <path d="m-26.203553-123.45312h3.196273"/>
      </g>
      <path d="m-22.599111-125.8328c-0.123652 0.0714-0.123652 4.68797 0 4.75936 0.123652 0.0714 4.121731-2.2369 4.121731-2.37968s-3.998079-2.45107-4.121731-2.37968z" stroke-width="1.5"/>
    </g>
    <path d="m-9.12622-126.42511h-3.027336v7.81899h-2.499993v-7.81899h-3.027336v-1.875h8.554665z" stroke-width="1.125" aria-label="T"/>
  </g>
</svg>
