<?xml version="1.0" encoding="UTF-8"?><svg fill="none" height="24" viewBox="0 0 24 24" width="24" xmlns="http://www.w3.org/2000/svg"><g fill="#212121"><path d="m4.5 17.5c-.2645 0-.50944-.1393-.64463-.3667-.13519-.2273-.14064-.509-.01434-.7414l6.24997-11.50003c.1638-.30141.5113-.45326.8438-.36875.3324.08451.5652.38384.5652.72689v11.49999c0 .4142-.3358.75-.75.75z"/><path d="m20.1446 17.1333c-.1352.2274-.3801.3667-.6446.3667h-6.25c-.4142 0-.75-.3358-.75-.75v-11.49999c0-.34305.2328-.64238.5652-.72689.3325-.08451.68.06734.8438.36875l6.25 11.50003c.1263.2324.1208.5141-.0144.7414zm-6.1446-8.93265v7.79935h4.2388z"/></g></svg>