<svg viewBox="0 0 24 24" width="24" height="24" xml:space="preserve" xmlns="http://www.w3.org/2000/svg">
  <g fill="none" stroke="#000" stroke-linejoin="round" stroke-width="1.067">
    <path d="M0 6.836h2.997M0 16.884h2.996M19.583 2.637H4.388c-.778 0-1.406.585-1.406 1.312V20.05c0 .727.628 1.312 1.406 1.312h15.195c.778 0 1.406-.585 1.406-1.312V3.95c0-.727-.628-1.312-1.406-1.312zm1.421 4.2h2.997m-2.997 10.047h2.997" stroke-width="2.5"/>
    <path d="m3.381 19.116 1.922-2.37-1.922-2.09Z" fill="#000" stroke-width=".6" stroke-linecap="round" stroke-miterlimit="4.2" paint-order="stroke fill markers"/>
  </g>
  <path d="M8.77 16.433v-1.608h.836V9.163H8.77V7.567h3.217q1.634 0 2.432.772.811.773.811 2.369v2.584q0 1.596-.81 2.369-.799.772-2.433.772zm2.508-1.596h.71q.873 0 1.215-.405.355-.418.355-1.292v-2.432q0-.76-.355-1.153-.342-.392-1.216-.392h-.709z" style="line-height:.75;-inkscape-font-specification:&quot;Space Mono, Bold&quot;;text-align:center" />
</svg>
