<svg inkscape:export-filename="..\ggate-64.png" inkscape:export-xdpi="128" inkscape:export-ydpi="128" inkscape:version="1.3 (0e150ed6c4, 2023-07-21)" sodipodi:docname="ggate.svg" version="1.1" viewBox="0 0 48 48" xml:space="preserve" xmlns="http://www.w3.org/2000/svg" xmlns:inkscape="http://www.inkscape.org/namespaces/inkscape" xmlns:sodipodi="http://sodipodi.sourceforge.net/DTD/sodipodi-0.dtd"><sodipodi:namedview bordercolor="#eeeeee" borderopacity="1" inkscape:current-layer="svg2" inkscape:cx="9.840918" inkscape:cy="31.664995" inkscape:deskcolor="#505050" inkscape:pagecheckerboard="0" inkscape:pageopacity="0" inkscape:showpageshadow="0" inkscape:window-height="745" inkscape:window-maximized="1" inkscape:window-width="1366" inkscape:window-x="-8" inkscape:window-y="-8" inkscape:zoom="7.4688154" pagecolor="#505050"/><defs><filter id="filter12" x="-.027411769" y="-.032482182" width="1.0548235" height="1.0649644" color-interpolation-filters="sRGB" inkscape:collect="always"><feGaussianBlur inkscape:collect="always" stdDeviation="0.34647738"/></filter><clipPath id="clipPath21"><rect x="2.2413373" y="5.6378284" width="43.517323" height="36.724342" rx="3.0690756" ry="2.939389" stroke="#000" stroke-linecap="round" stroke-linejoin="round" stroke-width=".0832849"/></clipPath><clipPath id="clipPath22"><rect x="2.2413373" y="5.6378284" width="43.517323" height="36.724342" rx="3.0690756" ry="2.939389" stroke="#000" stroke-linecap="round" stroke-linejoin="round" stroke-width=".0832849"/></clipPath><clipPath id="clipPath23"><rect x="2.2413373" y="5.6378284" width="43.517323" height="36.724342" rx="3.0690756" ry="2.939389" stroke="#000" stroke-linecap="round" stroke-linejoin="round" stroke-width=".0832849"/></clipPath><clipPath id="clipPath24"><rect x="2.2413373" y="5.6378284" width="43.517323" height="36.724342" rx="3.0690756" ry="2.939389" stroke="#000" stroke-linecap="round" stroke-linejoin="round" stroke-width=".0832849"/></clipPath></defs><rect transform="matrix(1.1029462,0,0,1.1029462,-2.4707104,-2.4707106)" x="4.2722368" y="7.3517079" width="39.455524" height="33.296585" rx="2.7826157" ry="2.6650336" fill="none" filter="url(#filter12)" opacity=".359375" stroke="#000" stroke-linecap="round" stroke-linejoin="round" stroke-width=".5"/><rect x="2.2413373" y="5.6378284" width="43.517323" height="36.724342" rx="3.0690756" ry="2.939389" stroke="#000" stroke-linecap="round" stroke-linejoin="round" stroke-width=".083285"/><g fill="none" stroke="#fff"><g stroke-width=".512356"><path d="m-9.9339779 29.119242h12.165313v0.187841m0-0.187841h13.3100269" clip-path="url(#clipPath24)"/><path d="m-9.9339789 18.880758h12.165314v0.187842m0-0.187842h13.3100269" clip-path="url(#clipPath23)"/><path d="m38.066023 23.999999h12.165313v0.187842m10.238482-0.187842h-10.238482" clip-path="url(#clipPath22)"/></g><path d="m12.469816 13.761516c5.119239 5.119242 5.119239 15.357726 0 20.476967m-2.5596183-20.476967c5.1192373 5.119242 5.1192373 15.357726 0 20.476967m2.5596183-20.476967c10.238483 0 17.917344 0 25.596207 10.238483m-25.596207 10.238484c10.238483 0 17.917344 0 25.596207-10.238484" clip-path="url(#clipPath21)" stroke-miterlimit="10" stroke-width=".511922"/></g></svg>
