<svg viewBox="0 0 24 24" width="24" height="24" xml:space="preserve" xmlns="http://www.w3.org/2000/svg">
  <g fill="none" stroke="#000" stroke-width="1.603">
    <path d="M-.001 6.837H2.99" stroke-width="2.5"/>
    <g stroke-linejoin="round" stroke-width="2.76">
      <path d="M-20.514-104.233h16.13c.83 0 1.832 1.124 1.832 1.955v17.449c0 .83-1.001 1.955-1.832 1.955h-16.13c-.831 0-1.304-1.124-1.304-1.955v-17.449c0-.83.473-1.955 1.304-1.955z" transform="matrix(.93585 0 0 .87665 23.403 94.015)"/>
      <path d="M-2.559-99.434H.637M-2.559-87.99H.637" stroke-width="2.87" transform="matrix(.93585 0 0 .87665 23.403 94.015)"/>
    </g>
  </g>
  <path d="M0 11.861h2.99M0 16.885h2.99" stroke-width="2.5" stroke="#000"/>
  <path d="M-17.203-91.987q-1 0-1.617-.543-.619-.551-.619-1.588v-.628h1.256v.628q0 .437.247.694.257.257.695.257.418 0 .646-.247.238-.248.238-.704V-97.6h-.685v-1.18h2.512v1.18h-.571v3.482q0 1.027-.57 1.579-.562.552-1.532.552m3.738-.134v-6.658h1.256v2.73h.275l1.76-2.73h1.417v.057l-2.054 3.186v.172l2.169 3.186v.057h-1.475l-1.817-2.73h-.275v2.73z" transform="translate(27.305 115.975)scale(1.09007)"/>
  <path d="m3.593 14.092 1.921-2.37L3.593 9.63z" stroke="#000" stroke-width=".6" stroke-linecap="round" stroke-linejoin="round" stroke-miterlimit="4.2" paint-order="stroke fill markers"/>
</svg>
