<svg viewBox="0 0 24 24" width="24" height="24" xml:space="preserve" xmlns="http://www.w3.org/2000/svg">
  <path d="M19.3 2.637H4.698c-.777 0-1.707.988-1.707 1.714v15.296c0 .726.93 1.715 1.707 1.715h14.603c.777 0 1.713-.989 1.713-1.715V4.351c0-.726-.936-1.714-1.713-1.714zM0 6.836h2.99m-2.992 6.698H2.99m-2.992-3.349H2.99m-2.992 6.7H2.99m18.016-10.05H24m-2.993 6.7H24m-2.993-3.35H24m-2.993 6.7H24" stroke-width="2.5" fill="none" stroke="#000" stroke-linejoin="round"/>
  <path d="M7.032 11.713v-6.3h2.466q.648 0 1.07.27.433.26.64.683.216.414.216.873v.216q0 .468-.216.9-.207.432-.64.711-.422.27-1.07.27H8.22v2.376zm1.188-3.51h1.16q.397 0 .622-.217.234-.216.234-.558V7.32q0-.342-.234-.558-.225-.216-.621-.216H8.22zm4.32 3.51v-1.135h1.512V6.546H12.54V5.413h4.212v1.134H15.24v4.032h1.512v1.134zm-5.508 6.75v-6.3h2.466q.648 0 1.07.27.433.26.64.683.216.414.216.873v.216q0 .468-.216.9-.207.432-.64.711-.422.27-1.07.27H8.22v2.376zm1.188-3.51h1.16q.397 0 .622-.217.234-.216.234-.558v-.108q0-.342-.234-.558-.225-.216-.621-.216H8.22zm6.426 3.635q-1.08 0-1.701-.657-.621-.666-.621-1.917V14.61q0-1.215.62-1.89.622-.684 1.702-.684t1.7.684q.622.675.622 1.89v1.404q0 1.251-.621 1.917-.621.657-1.701.657m0-1.08q.648 0 .89-.396.244-.396.244-1.026v-1.548q0-.396-.117-.72t-.37-.513q-.242-.189-.647-.189t-.657.19q-.252.188-.37.512-.107.324-.107.72v1.548q0 .63.243 1.026t.89.396"/>
</svg>
