<svg viewBox="0 0 24 24" width="24" height="24" xml:space="preserve" xmlns="http://www.w3.org/2000/svg">
  <path d="M21.015 6.836H24m-2.985 10.049H24M19.301 2.637H4.7c-.78 0-1.714.988-1.714 1.714v15.297c0 .726.934 1.714 1.714 1.714h14.601c.78 0 1.714-.988 1.714-1.714V4.351c0-.726-.934-1.714-1.714-1.714zM0 6.836h2.986M0 13.536h2.986M0 10.185h2.986M0 16.885h2.986" stroke-width="2.5" fill="none" stroke="#000" stroke-linejoin="round"/>
  <path d="M7.194 11.712v-6.3H9.66q.648 0 1.07.27.433.261.64.684.216.414.216.873v.216q0 .468-.216.9-.207.432-.64.711-.422.27-1.07.27H8.382v2.376Zm1.188-3.51h1.16q.397 0 .622-.216.234-.216.234-.558V7.32q0-.342-.234-.558-.225-.216-.621-.216H8.382zm4.32 3.51v-1.134h1.512V6.546h-1.512V5.412h4.212v1.134h-1.512v4.032h1.512v1.134zM9.39 18.588q-.828 0-1.395-.297-.558-.306-.846-.828-.28-.522-.28-1.179v-.27h1.189v.216q0 .567.333.909.333.333 1.017.333.54 0 .8-.234.262-.234.262-.558 0-.207-.1-.378-.098-.18-.36-.306-.26-.135-.746-.216-.63-.108-1.125-.315-.486-.207-.774-.576-.28-.378-.28-.999v-.054q0-.513.27-.918.27-.414.757-.648.495-.234 1.152-.234.747 0 1.26.27t.774.72q.27.441.27.954v.324H10.38v-.216q0-.378-.297-.657-.288-.279-.82-.279-.44 0-.71.189-.261.18-.261.495 0 .324.279.522.288.198 1.07.342.99.171 1.513.603.522.423.522 1.251v.108q0 .873-.612 1.404-.612.522-1.674.522m5.418 0q-1.08 0-1.701-.657-.621-.666-.621-1.917V14.61q0-1.215.62-1.89.622-.684 1.702-.684t1.7.684q.622.675.622 1.89v1.404q0 1.251-.621 1.917-.621.657-1.701.657m0-1.08q.648 0 .89-.396.244-.396.244-1.026v-1.548q0-.396-.117-.72t-.37-.513q-.242-.189-.647-.189t-.657.189-.37.513q-.107.324-.107.72v1.548q0 .63.243 1.026t.89.396"/>
</svg>
