<svg viewBox="0 0 24 24" width="24" height="24" xml:space="preserve" xmlns="http://www.w3.org/2000/svg">
  <path d="M21.004 16.885h2.985M21.004 6.836h2.985m-2.985 0h2.985M.001 16.893h2.985M0 6.82h2.985" stroke-width="2.5" stroke="#000" fill="none" stroke-linejoin="round"/>
  <g stroke-width="1.067">
    <path d="M46.048-105.092H62.15c.83.003 1.828 1.123 1.828 1.956v17.45c0 .833-.997 2.009-1.828 2.006l-15.575-.05c-.831-.003-1.829-1.123-1.829-1.956v-17.45c0-.733.617-1.956 1.302-1.956zm17.918 4.782h3.196" transform="matrix(.9375 0 0 .87825 -38.975 94.887)" fill="none" stroke="#000" stroke-linejoin="round" stroke-width="2.755"/>
    <path style="-inkscape-font-specification:&quot;Space Mono, Bold&quot;" d="M48.242-90.507v-7.742h2.964q.796 0 1.338.288.542.287.819.774.276.475.276 1.073v.265q0 .476-.265.896-.255.41-.775.63v.2q.387.044.609.298.232.255.232.642v2.676h-1.46v-2.322q0-.266-.144-.432-.133-.166-.453-.166h-1.681v2.92zm1.46-4.313h1.393q.531 0 .808-.255.276-.254.276-.696v-.133q0-.387-.276-.664-.277-.287-.808-.287h-1.393zm7.996 4.468q-1.017 0-1.714-.365-.686-.376-1.04-1.017-.343-.642-.343-1.45v-.331h1.46v.265q0 .697.41 1.117.409.41 1.25.41.663 0 .984-.288t.32-.686q0-.254-.121-.464-.122-.221-.443-.376-.32-.166-.918-.266-.774-.132-1.382-.387-.598-.254-.951-.708-.343-.464-.343-1.227v-.067q0-.63.332-1.128.331-.509.929-.796.608-.288 1.415-.288.918 0 1.549.332t.95.885q.333.542.333 1.172v.398h-1.46v-.265q0-.465-.365-.807-.354-.343-1.007-.343-.542 0-.873.232-.321.221-.321.608 0 .398.343.642.354.243 1.316.42 1.216.21 1.858.741.641.52.641 1.537v.133q0 1.073-.752 1.726-.752.641-2.057.641" aria-label="RS" transform="translate(-38.975 100.48)scale(.9375)"/>
  </g>
</svg>
