<svg viewBox="0 0 24 24" width="24" height="24" xml:space="preserve" xmlns="http://www.w3.org/2000/svg">
  <g stroke-width="1.069">
    <g fill="none" stroke="#000" stroke-width="2.871">
      <path d="M22.457 6.881h3.196m-3.196 7.644h3.196m-3.196-3.822h3.196m-3.196 7.645h3.196" transform="matrix(.93555 0 0 .87633 0 .807)" stroke-linejoin="round"/>
      <path d="M0 6.89h3.196" transform="matrix(.93555 0 0 .87633 0 .807)"/>
      <path d="M4.696 2.09h16.208c.83 0 1.5.668 1.5 1.5v18.42c0 .832-.67 1.5-1.5 1.5H4.696c-.83 0-1.5-.668-1.5-1.5V3.59c0-.832.67-1.5 1.5-1.5z" stroke-linejoin="round" transform="matrix(.93555 0 0 .87633 0 .807)"/>
      <path d="M0 12.624h3.196M0 18.357h3.196" transform="matrix(.93555 0 0 .87633 0 .807)"/>
      <path d="M5.023 2.09H20.63c1.79 0 1.833 1.125 1.833 1.956V21.5c0 .83-1.002 1.953-1.833 1.956l-15.607.054c-.831.002-1.827-1.18-1.827-2.01V4.046c0-.831.996-1.957 1.827-1.957z" stroke-linejoin="round" transform="matrix(.93555 0 0 .87633 0 .807)"/>
    </g>
    <g stroke-width="1.298" aria-label="SI PO" transform="translate(2.124 2.018)scale(.76968)"/>
  </g>
  <path d="M9.39 11.901q-.828 0-1.395-.297-.558-.306-.846-.828-.28-.522-.28-1.179v-.27h1.189v.216q0 .567.333.909.333.333 1.017.333.54 0 .8-.234.262-.234.262-.558 0-.207-.1-.378-.098-.18-.36-.306-.26-.135-.746-.216-.63-.108-1.125-.315-.486-.207-.774-.576-.28-.378-.28-.999v-.054q0-.513.27-.918.27-.414.757-.648.495-.234 1.152-.234.747 0 1.26.27t.774.72q.27.441.27.954v.324H10.38v-.216q0-.378-.297-.657-.288-.279-.82-.279-.44 0-.71.189-.261.18-.261.495 0 .324.279.522.288.198 1.07.342.99.171 1.513.603.522.423.522 1.251v.108q0 .873-.612 1.404-.612.522-1.674.522m3.312-.126v-1.134h1.512V6.609h-1.512V5.475h4.212v1.134h-1.512v4.032h1.512v1.134zm-5.508 6.75v-6.3H9.66q.648 0 1.07.27.433.261.64.684.216.414.216.873v.216q0 .468-.216.9-.207.432-.64.711-.422.27-1.07.27H8.382v2.376zm1.188-3.51h1.16q.397 0 .622-.216.234-.216.234-.558v-.108q0-.342-.234-.558-.225-.216-.621-.216H8.382zm6.426 3.636q-1.08 0-1.701-.657-.621-.666-.621-1.917v-1.404q0-1.215.62-1.89.622-.684 1.702-.684t1.7.684q.622.675.622 1.89v1.404q0 1.251-.621 1.917-.621.657-1.701.657m0-1.08q.648 0 .89-.396.244-.396.244-1.026v-1.548q0-.396-.117-.72t-.37-.513q-.242-.189-.647-.189t-.657.189-.37.513q-.107.324-.107.72v1.548q0 .63.243 1.026t.89.396" opacity=".93"/>
</svg>
