<svg viewBox="0 0 24 24" width="24" height="24" xml:space="preserve" xmlns="http://www.w3.org/2000/svg">
  <path d="M21.01 6.837H24m-2.99 10.059H24M19.3 2.638H4.7c-.78 0-1.715.987-1.715 1.714v15.296c0 .727.934 1.714 1.714 1.714h14.602c.78 0 1.714-.987 1.714-1.714V4.352c0-.727-.934-1.714-1.714-1.714zM0 6.837h2.99M0 16.861h2.99" stroke-width="2.5" fill="none" stroke="#000" stroke-linejoin="round"/>
  <path d="M9.39 11.901q-.828 0-1.395-.297-.558-.306-.846-.828-.28-.522-.28-1.179v-.27h1.189v.216q0 .567.333.909.333.333 1.017.333.54 0 .8-.234.262-.234.262-.558 0-.207-.1-.378-.098-.18-.36-.306-.26-.135-.746-.216-.63-.108-1.125-.315-.486-.207-.774-.576-.28-.378-.28-.999v-.054q0-.513.27-.918.27-.414.757-.648.495-.234 1.152-.234.747 0 1.26.27t.774.72q.27.441.27.954v.324H10.38v-.216q0-.378-.297-.657-.288-.279-.82-.279-.44 0-.71.189-.261.18-.261.495 0 .324.279.522.288.198 1.07.342.99.171 1.513.603.522.423.522 1.251v.108q0 .873-.612 1.404-.612.522-1.674.522m3.312-.126v-1.134h1.512V6.609h-1.512V5.475h4.212v1.134h-1.512v4.032h1.512v1.134zM9.39 18.651q-.828 0-1.395-.297-.558-.306-.846-.828-.28-.522-.28-1.179v-.27h1.189v.216q0 .567.333.909.333.333 1.017.333.54 0 .8-.234.262-.234.262-.558 0-.207-.1-.378-.098-.18-.36-.306-.26-.135-.746-.216-.63-.108-1.125-.315-.486-.207-.774-.576-.28-.378-.28-.999v-.054q0-.513.27-.918.27-.414.757-.648.495-.234 1.152-.234.747 0 1.26.27t.774.72q.27.441.27.954v.324H10.38v-.216q0-.378-.297-.657-.288-.279-.82-.279-.44 0-.71.189-.261.18-.261.495 0 .324.279.522.288.198 1.07.342.99.171 1.513.603.522.423.522 1.251v.108q0 .873-.612 1.404-.612.522-1.674.522m5.418 0q-1.08 0-1.701-.657-.621-.666-.621-1.917v-1.404q0-1.215.62-1.89.622-.684 1.702-.684t1.7.684q.622.675.622 1.89v1.404q0 1.251-.621 1.917-.621.657-1.701.657m0-1.08q.648 0 .89-.396.244-.396.244-1.026v-1.548q0-.396-.117-.72t-.37-.513q-.242-.189-.647-.189t-.657.189-.37.513q-.107.324-.107.72v1.548q0 .63.243 1.026t.89.396"/>
</svg>
