<svg version="1.1" viewBox="0 0 28 28" xmlns="http://www.w3.org/2000/svg">
  <g transform="translate(2.2356365,1.1999999)">
    <g transform="matrix(1.0937503,0,0,1.0937503,-144.58592,232.81868)" stroke-linejoin="round" stroke-width=".914285">
      <g fill="none" stroke="#000">
        <path d="m130.14879-206.44109h3.19628" stroke-width="1.57714"/>
        <path d="m130.14879-195.68119h3.19628" stroke-width="1.57714"/>
        <path d="m134.84507-211.87043h16.20745c0.831 0 1.5 0.669 1.5 1.5v18.42108c0 0.831-0.669 1.5-1.5 1.5h-16.20745c-0.831 0-1.5-0.669-1.5-1.5v-18.42108c0-0.831 0.669-1.5 1.5-1.5z" stroke-width="2.05714"/>
        <path d="m133.7419-204.0614c-0.12366-0.0714-0.12366-4.68798 0-4.75937 0.12365-0.0714 4.12173 2.23691 4.12173 2.37969s-3.99808 2.45107-4.12173 2.37968z" stroke-width="1.37143"/>
        <g stroke-width="1.57714">
          <path d="m152.55252-209.21847h3.19627"/>
          <path d="m152.55252-198.49147h3.19627"/>
          <path d="m152.55252-203.85497h3.19627"/>
          <path d="m152.55252-193.12798h3.19627"/>
        </g>
      </g>
      <path d="m143.7247-196.00826q-1.10558 0-2.04466-0.32634-0.93243-0.32635-1.6051-0.97239-0.67268-0.64603-1.04565-1.61176-0.36631-0.96572-0.36631-2.23115 0-1.17885 0.35299-2.13791t1.02567-1.64506q0.64603-0.65935 1.59843-1.019 0.95907-0.35965 2.09129-0.35965 0.62606 0 1.12557 0.0733 0.50617 0.0666 0.93242 0.17983 0.44623 0.12654 0.80588 0.28638 0.36631 0.15319 0.63938 0.28639v2.40431h-0.29305q-0.18649-0.15984-0.47287-0.37962-0.27973-0.21979-0.63938-0.43291-0.36631-0.21313-0.79256-0.35965-0.42625-0.14653-0.91244-0.14653-0.53947 0-1.02566 0.17317-0.48619 0.1665-0.89912 0.55945-0.39295 0.37963-0.63938 1.00568-0.23976 0.62606-0.23976 1.51852 0 0.93242 0.25974 1.55848 0.26641 0.62605 0.66602 0.9857 0.40627 0.36631 0.90578 0.52615 0.49951 0.15319 0.9857 0.15319 0.46621 0 0.9191-0.13987 0.45956-0.13986 0.84584-0.37963 0.32635-0.19314 0.60608-0.41293 0.27973-0.21978 0.45955-0.37962h0.26641v2.37101q-0.37297 0.1665-0.71264 0.31303-0.33967 0.14652-0.71264 0.25308-0.48619 0.13987-0.91244 0.21313-0.42625 0.0733-1.17219 0.0733z" stroke-width=".75159" aria-label="C"/>
    </g>
  </g>
</svg>
