<svg version="1.1" viewBox="0 0 28 28" xmlns="http://www.w3.org/2000/svg">
  <g transform="translate(2.2356365,1.1999999)">
    <g transform="matrix(1.0895487,0,0,1.0895487,6.5895967,110.04827)" stroke-width=".917811">
      <g transform="matrix(.9178112 0 0 .9178112 -34.131519 -36.292282)">
        <g transform="matrix(1.186559,0,0,1.186559,94.833199,38.536157)" fill="#1a1a1a" stroke-width=".773506">
          <path d="m-51.529297-88.744141a0.87565225 0.86719456 0 0 0-0.05859 0.01172c0.296365 0.1513 0.55937 0.366265 0.779297 0.609375 0.284505 0.3145 0.519279 0.690518 0.726563 1.111328h0.40625c0.214822-0.17469 0.442582-0.333105 0.675781-0.484375v-0.382812a0.87565225 0.86719456 0 0 0-0.875-0.865235zm1.654297 0a0.87565225 0.86719456 0 0 1 0.875 0.865235v0.382812c0.453973-0.294487 0.94053-0.544038 1.453125-0.740234 0.34173-0.130797 0.695607-0.238597 1.058594-0.320313 0.544479-0.122574 1.109894-0.1875 1.691406-0.1875zm5.078125 0c-1.550699 0-2.99253 0.462747-4.203125 1.248047v0.484375h5.351563c0.624626 0.11985 1.214354 0.446298 1.751953 0.742188v-1.609375a0.87565225 0.86719456 0 0 0-0.06836-0.328125c-0.877369-0.34505-1.832871-0.53711-2.832031-0.53711zm2.832031 0.53711c0.04399 0.10456 0.06779 0.214835 0.06836 0.328125v1.609375c1.826091 1.00516 3.05664 2.93202 3.05664 5.15625 0 2.22424-1.230549 4.154426-3.05664 5.160156v1.609375c-7.64e-4 0.11261-0.02456 0.224165-0.06836 0.328125 2.202483-0.86659 3.910898-2.710711 4.574219-4.988281-0.03435-0.02-0.07214-0.03504-0.105469-0.05664-0.392775-0.25339-0.708428-0.613689-0.908203-1.037109-0.02679-0.05679-0.04964-0.114955-0.07227-0.173828h-0.09375v-0.296875c-0.04459-0.181538-0.06836-0.36988-0.06836-0.564453 0-0.194649 0.02374-0.382858 0.06836-0.564454v-0.06055h0.01758c0.03863-0.141178 0.08677-0.27949 0.148437-0.410157 0.181932-0.38561 0.459536-0.717123 0.804688-0.964843 0.06307-0.0452 0.130054-0.08935 0.197265-0.128907-0.671478-2.25909-2.372736-4.084132-4.5625-4.945312zm4.5625 4.945312c-0.06721 0.03956-0.134195 0.08371-0.197265 0.128907 0.21968 0.444827 0.377466 0.902285 0.464843 1.375h0.01367c-0.04421-0.516734-0.137828-1.021383-0.28125-1.503907zm0.28125 1.503907c4e-3 0.047 0.01053 0.09341 0.01367 0.140625 9e-4 0.0196 3e-3 0.03889 0.0039 0.05859-0.05763 0.12982-0.0918 0.272542-0.0918 0.425782-1e-6 0.15356 0.03673 0.294328 0.0957 0.423828 0.01126 0.0247 0.02228 0.05247 0.03516 0.07617-0.0098 0.122396-0.02902 0.242173-0.05078 0.361328h4.693359v-1.486328zm0.01367 0.140625c-0.0072-0.04731-0.01866-0.09363-0.02734-0.140625h-1.269531v1.486328h1.265625c0.01681-0.144637 0.03122-0.290378 0.03906-0.4375-0.05897-0.1295-0.0957-0.270268-0.0957-0.423828 0-0.15324 0.03417-0.295962 0.0918-0.425782-9.54e-4 -0.0197-3e-3 -0.03899-0.0039-0.05859zm0.0078 0.908203c-0.0078 0.147122-0.02225 0.292863-0.03906 0.4375h0.02344c0.02176-0.119155 0.04098-0.238932 0.05078-0.361328-0.01288-0.0237-0.0239-0.05147-0.03516-0.07617zm-0.01563 0.4375h-0.02344c-0.01103 0.09487-0.02106 0.189268-0.03516 0.283203 0.02265-0.09415 0.04117-0.187806 0.05859-0.283203zm-0.05859 0.283203c-0.07635 0.31715-0.183682 0.627744-0.322266 0.927734 0.03333 0.0216 0.07112 0.03664 0.105469 0.05664 0.09322-0.32013 0.166408-0.648685 0.216797-0.984374zm0 0c0.0141-0.09394 0.02413-0.188336 0.03516-0.283203h-1.265625v0.173828c0.199775 0.42342 0.515428 0.783719 0.908203 1.037109 0.138584-0.29999 0.245913-0.610584 0.322266-0.927734zm-1.230469-0.109375v-0.173828h-0.07227c0.02263 0.05887 0.04547 0.117043 0.07227 0.173828zm-0.07227-0.173828c-0.03697-0.09618-0.06889-0.195678-0.09375-0.296875v0.296875zm0 0h0.07227v-1.486328h-0.148437c-0.0056 0.02034-0.01253 0.04001-0.01758 0.06055v1.128907c0.02486 0.101197 0.05678 0.200695 0.09375 0.296875zm-0.09375-0.296875v-1.128907c-0.04462 0.181596-0.06836 0.369805-0.06836 0.564454 0 0.194573 0.02377 0.382915 0.06836 0.564453zm0.01758-1.189453h0.148437v-0.410157c-0.06167 0.130667-0.109811 0.268979-0.148437 0.410157zm0.148437-0.410157v0.410157h1.269531c-0.08738-0.472715-0.245163-0.930173-0.464843-1.375-0.345152 0.24772-0.622756 0.579233-0.804688 0.964843zm-3.560547 8.152344a0.87565225 0.86719456 0 0 0 0.06836-0.328125v-1.609375c-0.537618 0.29609-1.127287 0.622288-1.751953 0.742188h-5.351544v0.484375c0.907386 0.589014 1.948657 0.99678 3.064453 1.164062 0.372174 0.0557 0.752979 0.08594 1.140625 0.08594 0.99916 0 1.952709-0.193853 2.830078-0.539063zm-2.830078 0.539063c-0.387646 0-0.768451-0.03024-1.140625-0.08594-1.115796-0.167282-2.157067-0.575048-3.064453-1.164062v0.382812a0.87565225 0.86719456 0 0 1-0.875 0.867188zm-5.080078 0a0.87565225 0.86719456 0 0 0 0.875019-0.867188v-0.382812c-0.233295-0.15145-0.460883-0.309545-0.675781-0.484375h-0.40625c-0.207284 0.42082-0.442048 0.796838-0.726563 1.111328-0.220471 0.24372-0.483959 0.459468-0.78125 0.611328a0.87565225 0.86719456 0 0 0 0.06055 0.01172zm-1.714844-0.01172c0.297291-0.15186 0.560779-0.367608 0.78125-0.611328 0.284515-0.31449 0.519279-0.690508 0.726563-1.111328h-0.572266v-0.953125c-0.03292-0.0382-0.06355-0.07836-0.0957-0.117188v1.070313h-1.410156c-0.105236 0.106459-0.188281 0.16381-0.246094 0.1875v0.679687a0.87565225 0.86719456 0 0 0 0.816406 0.855469zm-0.570312-1.722656h1.410175v-1.070313c-0.182971-0.22113-0.356148-0.450746-0.513672-0.691406-0.05315 0.17207-0.107409 0.337054-0.166015 0.490234-0.215595 0.56342-0.467791 0.990183-0.681641 1.226563-0.0187 0.0205-0.03166 0.02772-0.04883 0.04492zm0.896484-1.761719c0.157524 0.24066 0.330701 0.470276 0.513672 0.691406v-1.267578h-0.361328c-0.04866 0.19797-0.09687 0.396632-0.152344 0.576172zm0.152344-0.576172c0.128813-0.5238 0.233084-1.106885 0.302734-1.734375h-1.046875c-0.05525 0.60663-0.136647 1.189405-0.248047 1.734375zm0 0h0.361347v-1.734375h-0.05859c-0.06965 0.62749-0.173921 1.210575-0.302734 1.734375zm0.302734-1.734375h0.058613v-0.689453c-0.01584 0.23465-0.03369 0.464893-0.05859 0.689453zm0.05859-0.689453c0.01183-0.17455 0.0265-0.344118 0.0332-0.523438 0.0076-0.20236 0.01172-0.407854 0.01172-0.615234 0-0.20804-0.0046-0.412194-0.01172-0.615234-0.0067-0.17925-0.02137-0.350881-0.0332-0.525391zm0 0v0.689453h0.0957v-0.783203c-0.02538-0.14169-0.04742-0.284638-0.0625-0.429688-0.0067 0.17932-0.02137 0.348888-0.0332 0.523438zm0.0332-0.523438c0.01508 0.14505 0.03712 0.287998 0.0625 0.429688v-2.09375c-0.02557 0.14229-0.04742 0.287894-0.0625 0.433594 0.0071 0.20304 0.01172 0.407194 0.01172 0.615234 0 0.20738-0.0041 0.412874-0.01172 0.615234zm0-1.230468c0.01508-0.1457 0.03693-0.291304 0.0625-0.433594v-0.78125h-0.095677v0.689453c0.01183 0.17451 0.0265 0.346141 0.0332 0.525391zm-0.0332-0.525391v-0.689453h-0.05859c0.0249 0.22441 0.04276 0.455003 0.05859 0.689453zm-0.05859-0.689453c-0.06965-0.62766-0.173931-1.210395-0.302734-1.734375h-1.044922c0.120979 0.5445 0.213794 1.123945 0.277344 1.734375zm0 0h0.058613v-1.734375h-0.361328c0.128803 0.52398 0.233084 1.106715 0.302734 1.734375zm-0.302734-1.734375h0.361347v-1.265625c-0.182924 0.22106-0.35611 0.450686-0.513672 0.691406 0.05544 0.17952 0.103681 0.376229 0.152344 0.574219zm-0.152325-0.574218c0.157562-0.24072 0.330748-0.470346 0.513672-0.691406v-1.070313h-1.410156c0.01708 0.0173 0.03023 0.02442 0.04883 0.04492 0.213849 0.23637 0.466045 0.66119 0.681641 1.22461 0.05859 0.15318 0.112858 0.320057 0.166015 0.492187zm-0.896484-1.761719h1.410156v1.070313c0.03225-0.03903 0.06259-0.07889 0.0957-0.117188v-0.953125h0.572266c-0.207284-0.42081-0.442058-0.796828-0.726563-1.111328-0.219927-0.24311-0.482932-0.458075-0.779297-0.609375a0.87565225 0.86719456 0 0 0-0.818359 0.853516v0.675781c0.05792 0.0235 0.140506 0.08412 0.246094 0.191406zm2.078125 0h-0.572266v0.953125c0.215098-0.24955 0.444116-0.486721 0.689453-0.707031-0.0374-0.084-0.07749-0.165604-0.117187-0.246094zm0.117187 0.246094c-0.245337 0.22031-0.474355 0.457481-0.689453 0.707031v1.382813h0.72461v0.572265c0.167913-0.28338 0.358324-0.552404 0.570312-0.802734-0.120426-0.51902-0.264678-1.007759-0.433594-1.449219-0.05448-0.14233-0.112412-0.276536-0.171875-0.410156zm0.605469 1.859375c-0.211988 0.25033-0.402399 0.519354-0.570312 0.802734v1.16211h-0.529297c-0.08263 0.2533-0.147384 0.51394-0.195313 0.78125v2.09375c0.04808 0.26823 0.114256 0.529133 0.197266 0.783203h0.527344v1.160156c0.167914 0.28337 0.358324 0.554268 0.570312 0.804688 0.179566-0.77427 0.298919-1.629064 0.359375-2.533203v-2.519532c-0.0603-0.90504-0.179523-1.760006-0.359375-2.535156zm0 7.587891c-0.211988-0.25042-0.402398-0.521318-0.570312-0.804688v0.574219h-0.72461v1.384766c0.215099 0.24962 0.444116 0.486641 0.689453 0.707031 0.05945-0.13361 0.117411-0.267827 0.171875-0.410156 0.169231-0.44227 0.313044-0.931322 0.433594-1.451172zm-0.605469 1.861328c-0.245337-0.22039-0.474354-0.457411-0.689453-0.707031v0.953125h0.572266c0.03969-0.0806 0.07979-0.162024 0.117187-0.246094zm-0.689453-0.707031v-1.384766h-0.095703v1.267578c0.03215 0.03883 0.06278 0.07899 0.0957 0.117188zm-0.0957-1.384766h0.0957v-1.734375h-0.095703zm0.0957-1.734375h0.197266c-0.08301-0.25407-0.149185-0.514973-0.197266-0.783203zm0 0v1.734375h0.72461v-0.574219c-0.215528-0.36373-0.393751-0.751356-0.527344-1.160156zm0.197266 0c0.133593 0.4088 0.311816 0.796426 0.527344 1.160156v-1.160156zm-0.197266-2.876953c0.04793-0.26731 0.112683-0.52795 0.195313-0.78125h-0.195313zm0-0.78125v-1.734375h-0.095703v1.734375zm0 0h0.195313c0.133689-0.40975 0.313319-0.79763 0.529297-1.16211v-0.572265h-0.72461zm0-1.734375v-1.382813c-0.03311 0.0383-0.06345 0.07816-0.0957 0.117188v1.265625zm0.72461 0.572265c-0.215978 0.36448-0.395608 0.75236-0.529297 1.16211h0.529297zm0.253906-2.908203h0.675781v-0.484375c-0.233199 0.15127-0.460959 0.309685-0.675781 0.484375zm0.675781 11.800782h-0.675781c0.214898 0.17483 0.442486 0.332925 0.675781 0.484375zm-2.878906-7.730469c-0.06355-0.61043-0.156365-1.189875-0.277344-1.734375h-1.796875c0.13324 0.52105 0.240458 1.105175 0.314453 1.734375zm-1.759766 0c-0.074-0.6292-0.181213-1.213325-0.314453-1.734375h-2.066406v1.734375zm1.783203 3.658203h-1.761718c-0.0645 0.625-0.16184 1.208035-0.285157 1.734375h1.798828c0.1114-0.54497 0.192801-1.127745 0.248047-1.734375zm-2.046875 1.734375c0.123317-0.52634 0.220656-1.109375 0.285157-1.734375h-2.402344v1.734375z" fill="#1a1a1a" stroke-linejoin="round" stroke-width=".851395"/>
        </g>
      </g>
    </g>
  </g>
</svg>
