<svg version="1.1" viewBox="0 0 28 28" xmlns="http://www.w3.org/2000/svg">
  <g transform="translate(2.2356365,1.1999999)">
    <g transform="matrix(1.090586,0,0,1.090586,-2.1968927,-1.1595013)" stroke-width=".916938">
      <g fill="none" stroke="#000" stroke-linejoin="round">
        <path d="m20.903727 2.0894581h-16.207454c-0.831 0-1.5 0.669-1.5 1.5v18.421084c0 0.831 0.669 1.5 1.5 1.5h16.207454c0.831 0 1.5-0.669 1.5-1.5v-18.421084c0-0.831-0.669-1.5-1.5-1.5z" stroke-width="2.06311"/>
        <g stroke-width="1.58172">
          <path d="m0 4.7547529h3.196273"/>
          <path d="m0 15.481757h3.196273"/>
          <path d="m0 10.118257h3.196273"/>
          <path d="m0 20.845247h3.196273"/>
        </g>
      </g>
      <path d="m12.336462 7.1629759c0-1.619712-1.140192-2.408256-3.1541759-2.408256h-2.3230081v7.3846081h1.747584v-2.461536h0.8098561c1.7369279 0 2.9197439-0.7992 2.9197439-2.5148161zm-1.790208 0c0 0.8737921-0.468864 1.2574081-1.2467519 1.2574081h-0.6926401v-2.4189121h0.6073921c0.8844479 0 1.3319999 0.37296 1.3319999 1.161504zm7.640356-2.408256h-4.7952v1.27872h1.523808v4.8165121h-1.523808v1.289376h4.7952v-1.289376h-1.523808v-4.8165121h1.523808z" stroke-width=".916018"/>
      <path d="m12.336462 15.687776c0-1.619712-1.140192-2.408256-3.1541759-2.408256h-2.3230081v7.384608h1.747584v-2.461536h0.8098561c1.7369279 0 2.9197439-0.7992 2.9197439-2.514816zm-1.790208 0c0 0.873792-0.468864 1.257408-1.2467519 1.257408h-0.6926401v-2.418912h0.6073921c0.8844479 0 1.3319999 0.37296 1.3319999 1.161504zm8.194468 1.27872c0-2.3976-1.01232-3.878784-2.951712-3.878784s-2.951712 1.534464-2.951712 3.878784c0 2.3976 1.01232 3.878784 2.951712 3.878784s2.951712-1.534464 2.951712-3.878784zm-1.790208 0c0 1.790208-0.309024 2.600064-1.161504 2.600064-0.820512 0-1.161504-0.788544-1.161504-2.600064s0.330336-2.600064 1.161504-2.600064 1.161504 0.788544 1.161504 2.600064z" stroke-width=".916018"/>
      <g fill="none" stroke="#000" stroke-linejoin="round" stroke-width="1.58172">
        <path d="m22.442471 4.7547529h3.196273"/>
        <path d="m22.442471 15.481757h3.196273"/>
        <path d="m22.442471 10.118257h3.196273"/>
        <path d="m22.442471 20.845247h3.196273"/>
      </g>
    </g>
  </g>
</svg>
